<svg xmlns="http://www.w3.org/2000/svg" width="500" height="625" fill="none" fill-rule="evenodd" xmlns:v="https://vecta.io/nano"><path fill="#fff" d="M0 0h500v625H0z"/><g fill="#0010bf" fill-rule="nonzero"><path d="M233.073 375.901c-1.692.766-3.498 1.149-5.558 1.149-3.272 0-5.501-.894-7.335-3.032-1.749-2.011-2.68-4.755-2.68-7.978 0-6.893 3.922-11.041 10.383-11.041 1.947 0 3.837.319 5.473.925-.056.734-.056 1.468-.056 2.17 0 .542.028 1.691.056 2.425h-1.1c-.451-2.266-2.06-3.478-4.627-3.478-3.978 0-6.404 3-6.404 7.978 0 5.744 2.849 9.924 6.771 9.924 2.37 0 3.978-1.34 4.627-3.893l1.072.256c-.254 1.085-.508 2.904-.621 4.595m10.977-15.485c-2.891 0-4.953 2.724-4.953 6.542 0 4.646 2.441 8.304 5.546 8.304 2.915 0 5-2.777 5-6.648 0-4.592-2.465-8.197-5.593-8.197m6.399 13.751c-1.611 1.976-3.674 2.884-6.375 2.884-4.834 0-8.01-3.498-8.01-8.838 0-5.687 3.46-9.612 8.46-9.612 4.882 0 8.129 3.524 8.129 8.838 0 2.536-.806 4.993-2.204 6.728m23.391 2.855l-2.498-.027-2.497.027-.537.027v-.756c.607-.081 1.004-.297 1.214-.81.327-.756.35-.999.35-4.264l-.28-8.42c-.537 1.242-4.319 12.36-4.833 14.249h-1.401c-.396-1.485-3.548-9.985-5.183-14.006a333.71 333.71 0 0 0-.14 9.229c0 1.754 0 2.105.117 2.671.163.783.56 1.214 1.284 1.35v.756c-.911-.027-1.237-.027-2.405-.027l-2.404.027v-.756c1.027-.081 1.494-.648 1.634-1.943.093-.918.14-1.781.21-3.94l.14-6.153c0-1.916-.07-2.699-.327-3.427-.21-.648-.537-.891-1.19-1.026v-.756c.887.054 1.214.054 2.358.054 1.121 0 1.448 0 2.334-.054 1.307 3.886 3.175 8.743 4.832 12.9.444-.891 3.922-11.253 4.319-12.9l.443.027c.49.027 1.167.027 2.054.027l2.031-.027.444-.027v.756c-1.213.216-1.517 1.026-1.517 3.967 0 1.403.07 2.644.14 5.316l.186 4.399c.094 1.376.211 2.671 1.658 2.807v.756l-.537-.027zm22.118 0l-2.498-.027-2.497.027-.537.027v-.756c.607-.081 1.004-.297 1.214-.81.327-.756.35-.999.35-4.264l-.28-8.42c-.537 1.242-4.319 12.36-4.833 14.249h-1.401c-.396-1.485-3.548-9.985-5.183-14.006a335.34 335.34 0 0 0-.14 9.229c0 1.754 0 2.105.117 2.671.163.783.56 1.214 1.284 1.35v.756c-.911-.027-1.237-.027-2.405-.027l-2.404.027v-.756c1.027-.081 1.494-.648 1.634-1.943.093-.918.14-1.781.21-3.94l.14-6.153c0-1.916-.07-2.699-.327-3.427-.21-.648-.537-.891-1.19-1.026v-.756c.887.054 1.214.054 2.358.054 1.121 0 1.448 0 2.334-.054 1.307 3.886 3.175 8.743 4.832 12.9.444-.891 3.922-11.253 4.319-12.9l.443.027c.49.027 1.167.027 2.054.027l2.031-.027.444-.027v.756c-1.213.216-1.517 1.026-1.517 3.967 0 1.403.07 2.644.14 5.316l.186 4.399c.094 1.376.211 2.671 1.658 2.807v.756l-.537-.027zm16.808-16.647c-.26.398-.378.928-.425 1.988l-.071 3.659.023 4.268c0 1.856-.259 2.97-.944 4.083-1.085 1.776-2.878 2.678-5.237 2.678-1.486 0-2.618-.318-3.68-1.113-1.652-1.193-2.288-2.757-2.288-5.567l.047-5.037c0-1.352.071-2.757-.141-4.082-.141-.954-.59-1.352-1.58-1.458v-.742l.542.027 2.618.027 2.619-.027.542-.027v.742c-.732.106-1.085.318-1.321.769-.212.398-.307.928-.33 2.094l-.071 4.984c0 4.56.094 5.435.826 6.389.567.743 1.533 1.246 2.666 1.246 1.581 0 3.114-.901 3.586-2.677.307-1.14.354-1.962.354-4.958v-2.624c0-3.022-.071-3.95-.33-4.4-.26-.477-.613-.742-1.227-.822v-.742l2.453.053 2.477-.053v.742c-.519.08-.849.239-1.109.583m18.347.236c-.26.486-.307.944-.355 2.348l-.095 8.015v4.129l.071 1.943h-1.61l-4.735-6.746-4.83-6.774c0 .567-.023.216-.023 1.97v1.754l.095 6.045c.047 1.133.141 1.7.378 2.213.237.539.592.756 1.278.782v.756l-2.509-.054-2.534.054v-.756c1.563-.054 1.61-1.538 1.657-2.941l.047-3.806v-5.694c0-2.24-.095-2.779-.45-3.373-.236-.432-.544-.593-1.254-.674v-.756l2.06.054 2.036-.054c.284.593.734 1.133 2.368 3.4l6.369 8.744v-5.883l-.166-4.075c-.165-.864-.615-1.295-1.491-1.43v-.756l2.51.054s1.539 0 2.51-.054v.756c-.639.027-.995.162-1.326.809m9.052 16.408l-2.58-.027-2.603.027-.568.027v-.756c1.112-.108 1.539-.756 1.633-1.997.071-.809.095-1.295.095-3.967v-4.534l-.024-2.213c0-1.43-.047-2.078-.236-2.645-.213-.701-.662-1.025-1.467-1.133v-.756l.568.027 2.603.027 2.58-.027.568-.027v.756c-1.018.081-1.539.81-1.633 2.024-.071.783-.071 1.538-.071 3.967v4.534c0 3.535.024 4.129.261 4.83.213.702.639 1.053 1.444 1.134v.756l-.568-.027zm15.853-.934c-1.404.641-2.901.961-4.609.961-2.714 0-4.563-.748-6.083-2.536-1.451-1.682-2.223-3.978-2.223-6.675 0-5.767 3.252-9.238 8.61-9.238 1.614 0 3.182.267 4.539.774-.047.614-.047 1.228-.047 1.816 0 .454.024 1.415.047 2.03h-.913c-.374-1.896-1.708-2.911-3.837-2.911-3.298 0-5.311 2.51-5.311 6.675 0 4.807 2.363 8.304 5.615 8.304 1.965 0 3.299-1.122 3.837-3.258l.889.214c-.21.908-.421 2.43-.514 3.845m8.611-12.29l-1.792 5.532h3.444l-1.652-5.532zm7.539 13.224l-2.49-.027-2.513.027-.535.027v-.755c.745-.054 1.187-.513 1.187-1.269 0-.27-.07-.648-.303-1.457l-.745-2.591h-4.468l-.466 1.565c-.349 1.215-.535 2.105-.535 2.564 0 .782.303 1.133 1.047 1.187v.755l-2.327-.054-2.304.054v-.755c.348-.054.465-.108.721-.378.442-.459.885-1.403 1.582-3.454l2.211-6.531 2.141-6.881h1.583c.209.836.698 2.159 1.023 3.13l3.281 9.742 1.256 3.238c.326.648.652.972 1.21 1.134v.755l-.558-.027zm12.292-13.891c-.372-1.28-.72-1.84-1.394-2.187-.511-.24-1.069-.347-2.649-.347h-.279c-.023.4-.07.56-.07 4.613v4.747c0 3.493.047 4.08.256 4.773.233.694.651 1.04 1.417 1.12v.747l-.534-.027-2.556-.027-2.556.027-.535.027v-.747c1.023-.054 1.487-.773 1.58-1.974.07-.8.093-1.52.093-3.92v-4.747l-.047-4.613h-.279c-1.579 0-2.114.08-2.672.347-.651.293-1.022.907-1.394 2.187l-.906-.187c.279-1.44.395-2.88.488-4.347.418.107.604.133.953.187.72.08 1.046.106 3.392.106h3.764l3.392-.106.953-.187.488 4.347-.906.187zm7.843 13.89l-2.58-.027-2.603.027-.568.027v-.756c1.113-.108 1.539-.756 1.633-1.997.071-.809.095-1.295.095-3.967v-4.534l-.024-2.213c0-1.43-.047-2.078-.237-2.645-.213-.701-.662-1.025-1.467-1.133v-.756l.568.027 2.603.027 2.58-.027.568-.027v.756c-1.018.081-1.539.81-1.633 2.024-.071.783-.071 1.538-.071 3.967v4.534c0 3.535.024 4.129.261 4.83.213.702.639 1.053 1.444 1.134v.756l-.568-.027zm10.529-16.607c-2.891 0-4.953 2.724-4.953 6.542 0 4.646 2.44 8.304 5.545 8.304 2.915 0 5.001-2.777 5.001-6.648 0-4.592-2.465-8.197-5.593-8.197m6.399 13.751c-1.611 1.976-3.673 2.884-6.375 2.884-4.835 0-8.01-3.498-8.01-8.838 0-5.687 3.46-9.612 8.46-9.612 4.882 0 8.129 3.524 8.129 8.838 0 2.536-.806 4.993-2.204 6.728m19.087-11.205l-.095 8.015v4.129l.071 1.943h-1.61l-4.735-6.746-4.83-6.774c0 .567-.023.216-.023 1.97v1.754l.095 6.045c.047 1.133.142 1.7.378 2.213.237.539.592.756 1.279.782v.756l-2.509-.054-2.534.054v-.756c1.563-.054 1.61-1.538 1.657-2.941l.047-3.806v-5.694c0-2.24-.095-2.779-.45-3.373-.237-.432-.545-.593-1.255-.674v-.756l2.06.054 2.036-.054c.285.593.734 1.133 2.368 3.4l6.369 8.744v-5.883l-.166-4.075c-.166-.864-.616-1.295-1.491-1.43v-.756l2.509.054s1.539 0 2.51-.054v.756c-.639.027-.995.162-1.326.809-.261.486-.308.944-.355 2.348zM70 348.73h13.838v-82.458H70v-1.688h40.142v1.688H96.304v82.458h22.19c7.313 0 13.048-2.21 17.203-6.631s7.189-10.447 9.101-18.082h1.372v26.401H70v-1.687zm159.597-84.146l-23.12 64.766h-.249l-22.577-63.245s-.219-.772-1.043-1.185c-.851-.364-1.59-.336-1.59-.336h-25.087s-.698.299-.698.87.698.815.698.815h12.929v82.342h-13.871v1.685h29.617v-1.685h-13.871v-80.777h.249l29.744 82.582 29.869-83.424h.25l-.001 81.614-13.187.047-.012 1.643h39.569v-1.685h-13.871l-.005-82.341 13.877-.001v-1.685h-27.619zm34.835 84.146h13.838v-82.458h-13.838v-1.688h40.142v1.688h-13.837v82.458h22.19c7.312 0 13.047-2.21 17.203-6.631s7.187-10.447 9.1-18.082h1.371v26.401h-76.169v-1.687z"/><path d="M430 350.28h-1.873a11.8 11.8 0 0 0-1.997-1.743c-.749-.521-1.917-.782-3.497-.782-1.249 0-2.601.222-4.058.661l-4.994 1.503c-1.873.56-3.976 1.062-6.306 1.503s-4.912.661-7.74.661c-5.244 0-10.343-.922-15.295-2.766s-9.635-4.849-14.046-9.018c-4.079-3.927-7.491-8.577-10.238-13.949s-4.121-11.583-4.121-18.638c0-6.013 1.123-11.744 3.371-17.195s5.37-10.26 9.365-14.43 8.697-7.474 14.108-9.92 11.319-3.668 17.729-3.668c2.58 0 4.87.241 6.867.721s3.788 1.023 5.369 1.624l4.371 1.623c1.331.482 2.623.722 3.87.722 1.664 0 2.85-.259 3.558-.782a13.15 13.15 0 0 0 1.935-1.743h1.872v24.049h-1.373c-.749-3.046-1.707-6.051-2.872-9.019s-2.79-5.591-4.869-7.875-4.726-4.128-7.928-5.532-7.18-2.104-11.924-2.104c-4.413 0-8.201.661-11.362 1.984s-5.827 3.087-7.99 5.291-3.893 4.77-5.182 7.696-2.27 6.012-2.934 9.259a71.27 71.27 0 0 0-1.311 9.86c-.207 3.325-.312 6.474-.312 9.439 0 8.417.706 15.391 2.123 20.923s3.39 9.901 5.931 13.107 5.597 5.452 9.176 6.734 7.534 1.924 11.862 1.924c5.575 0 10.069-.761 13.485-2.285s6.159-3.506 8.24-5.952 3.661-5.21 4.745-8.297a137.7 137.7 0 0 0 2.871-9.199H430v25.612zM265.509 238.309L197.87 385.957c-.204.445-.008.971.437 1.175.451.205.979.007 1.184-.44l67.639-147.648c.204-.445.008-.971-.437-1.175-.451-.205-.979-.007-1.184.44z"/></g><path stroke="#979797" d="M.5.5h499v624H.5z"/></svg>