<svg xmlns="http://www.w3.org/2000/svg" width="500" height="625" fill-rule="evenodd" xmlns:v="https://vecta.io/nano"><path fill="#000" d="M0 0h500v625H0z"/><g fill="#fff"><path d="M101.604 370.466c-.509 1.658-1.947 2.924-4.143 2.924-1.5 0-2.753-.481-3.609-1.316s-1.352-2.051-1.352-3.519c0-1.532.521-2.823 1.426-3.734.893-.912 2.158-1.43 3.684-1.43a5.21 5.21 0 0 1 1.823.317c.583.215.93.101 1.067-.317h.546l.074 3.203h-.496c-.446-1.38-1.476-2.38-2.902-2.38-.98 0-1.736.405-2.257 1.139s-.806 1.81-.806 3.127c0 2.62 1.067 4.076 3.113 4.076 1.315 0 2.542-.62 3.138-2.367l.695.278h0zm12.002.76c0 1.241.149 1.494 1.302 1.532v.506h-4.552v-.506c1.215-.038 1.426-.266 1.426-1.443v-2.646h-4.601v2.557c0 1.266.186 1.494 1.414 1.532v.506h-4.539v-.506c1.116-.038 1.302-.279 1.302-1.443v-5.848c0-1.165-.149-1.38-1.166-1.443v-.506h4.279v.506c-1.141.038-1.29.291-1.29 1.531v2.329h4.601v-2.417c0-1.19-.186-1.38-1.302-1.443v-.506h4.291v.506c-1.03.038-1.166.316-1.166 1.531v5.671h0zm8.502-5.506l-1.476 3.835h2.952l-1.426-3.835h-.05zm1.749 4.595h-3.51c-.385.899-.583 1.519-.583 1.861 0 .506.372.582 1.116.582v.506h-3.398v-.506c.794-.101 1.129-.304 1.426-1.025l3.262-8.342h.918l2.964 7.392c.62 1.544.757 1.848 1.984 1.962v.519h-4.688v-.519c.397-.013.682-.063.856-.126s.26-.203.26-.405c0-.241-.124-.595-.323-1.139l-.285-.76zm13.452.582l2.865-7.38h3.622v.507c-1.154 0-1.278.455-1.278 1.911v4.912c0 1.595.136 1.873 1.414 1.911v.506h-4.663v-.506c1.265-.038 1.427-.342 1.427-1.823v-5.924h-.062l-3.336 8.38h-.918l-3.448-8.38h-.05v5.835c0 1.595.136 1.873 1.414 1.911v.506h-3.82v-.506c1.277-.038 1.439-.329 1.439-1.823v-5.089c0-1.38-.161-1.823-1.302-1.823v-.507h3.758l2.89 7.38h.05 0zm12.569-2.507h.806c1.6 0 2.319-.595 2.319-2.177 0-1.266-.608-1.988-1.947-1.988h-.955c-.149 0-.223.076-.223.215v3.949h0zm1.054.76h-1.054v2.101c0 1.342.297 1.506 1.798 1.506v.506h-4.924v-.506c1.116-.038 1.302-.266 1.302-1.443v-5.848c0-1.165-.149-1.38-1.166-1.443v-.506h4.292c2.518 0 3.82.924 3.82 2.709 0 1.987-1.426 2.924-4.068 2.924h0z"/><path d="M160 373.39h-5v-.52c1.317-.039 1.471-.364 1.471-1.87v-5.221c0-1.416-.14-1.792-1.331-1.87v-.52h4.72v.52c-1.191.078-1.33.454-1.33 1.87V371c0 1.506.126 1.831 1.47 1.87v.52zm9.788-1.923c.513-.695.804-1.712.804-2.965 0-1.303-.292-2.382-.804-3.139-.525-.744-1.283-1.154-2.204-1.154a2.55 2.55 0 0 0-2.192 1.154c-.525.757-.816 1.836-.816 3.139 0 1.253.292 2.271.816 2.965.513.707 1.259 1.104 2.192 1.104a2.65 2.65 0 0 0 2.204-1.104m1.411-6.613c.91.918 1.469 2.171 1.469 3.611a4.83 4.83 0 0 1-1.481 3.487c-.909.893-2.192 1.439-3.603 1.439a5.15 5.15 0 0 1-3.603-1.439c-.921-.881-1.481-2.109-1.481-3.487 0-1.439.571-2.692 1.481-3.611s2.169-1.464 3.603-1.464 2.705.546 3.615 1.464m11.166 8.375l-5.422-8.152.152.074v5.645c0 1.538.105 1.836 1.212 1.873v.497h-3.463v-.497c1.19-.037 1.341-.335 1.341-1.787v-4.988c0-1.365-.14-1.725-1.224-1.786v-.496h3.253l4.699 7.171h-.163v-4.802c0-1.526-.093-1.836-1.212-1.873v-.496H185v.496c-1.201.037-1.341.335-1.341 1.786v7.333h-1.294zm15.845-9.047c-.131 0-.203.078-.203.221v6.714c0 1 .561 1.48 1.754 1.48 2.088 0 3.246-1.403 3.246-4.013 0-1.39-.31-2.494-.883-3.247s-1.408-1.156-2.423-1.156h-1.492 0zM195 373.39v-.52c1.05-.039 1.253-.26 1.253-1.48v-6c0-1.182-.119-1.402-1.062-1.48v-.52h4.535c1.527 0 2.84.545 3.783 1.467s1.492 2.208 1.492 3.702c0 1.416-.513 2.636-1.396 3.481s-2.148 1.351-3.628 1.351H195h0zm15.591-5.428c1.067 0 1.864-.026 2.257-.273.344-.208.454-.454.54-1.169h.454v3.61h-.454c-.098-.688-.233-1.039-.589-1.26-.38-.221-1.153-.247-2.208-.247v2.571c0 1.195.626 1.481 2.097 1.481 1.46 0 2.085-.519 2.49-2.13h.491l-.184 2.844H207.5v-.52c1.104-.039 1.288-.273 1.288-1.48v-6c0-1.195-.147-1.416-1.153-1.48v-.52h7.752l.086 2.415h-.528c-.245-1.364-.859-1.727-2.502-1.727h-1.386c-.429 0-.466.065-.466.48v3.403h0zm17.358 3.338c0 1.351.294 1.532 1.791 1.571v.52h-4.882v-.52c1.104-.039 1.288-.273 1.288-1.48v-6c0-1.195-.147-1.416-1.153-1.48v-.52h7.385l.122 2.61h-.515c-.184-1.403-.724-1.883-2.245-1.883h-1.57c-.147 0-.221.078-.221.221v4.013c1.987 0 2.539-.169 2.674-1.688h.454v4.065h-.454c-.208-1.533-.711-1.688-2.674-1.688v2.26h0zm10.166-3.299h.803c1.545 0 2.311-.584 2.311-2.039 0-1.104-.68-1.844-1.817-1.844h-1.076c-.148 0-.222.078-.222.221v3.662zm2.559.675l2.781 3.273c.593.688 1.137.922 1.545.922v.52h-2.806l-3.115-3.948c-.408-.52-.705-.662-.964-.662v2.546c0 1.338.334 1.545 1.545 1.545v.52H235v-.52c1.1 0 1.298-.273 1.298-1.48v-6c0-1.208-.111-1.416-1.162-1.48v-.52h4.277c2.386 0 3.745.935 3.745 2.506 0 1.442-.754 2.454-2.485 2.779h0 0zm11.348-2.956l-1.443 3.835h2.885l-1.394-3.835h-.048 0zm1.709 4.595H250.3c-.376.899-.57 1.519-.57 1.861 0 .506.364.582 1.091.582v.506H247.5v-.506c.776-.101 1.103-.304 1.394-1.025l3.188-8.342h.897l2.897 7.392c.606 1.544.74 1.848 1.94 1.962v.519h-4.582v-.519c.388-.013.667-.063.836-.126s.255-.203.255-.405c0-.241-.121-.595-.315-1.139l-.279-.76h0zm14.287 3.013l-5.637-8.317.158.076v5.76c0 1.569.109 1.873 1.26 1.911v.507h-3.6v-.507c1.237-.038 1.394-.342 1.394-1.823v-5.089c0-1.392-.145-1.76-1.273-1.823v-.506h3.382l4.885 7.317h-.17v-4.899c0-1.557-.097-1.873-1.26-1.911v-.506h3.6v.506c-1.249.038-1.394.342-1.394 1.823v7.481h-1.345 0zm14.012-2.861c-.497 1.658-1.903 2.924-4.049 2.924-1.467 0-2.691-.481-3.528-1.316s-1.321-2.051-1.321-3.519c0-1.532.509-2.823 1.394-3.734.873-.912 2.109-1.43 3.6-1.43a4.99 4.99 0 0 1 1.782.317c.57.215.909.101 1.042-.317h.533l.073 3.203h-.485c-.436-1.38-1.442-2.38-2.836-2.38a2.55 2.55 0 0 0-2.206 1.139c-.509.734-.788 1.81-.788 3.127 0 2.62 1.043 4.076 3.043 4.076 1.285 0 2.485-.62 3.067-2.367l.679.278h0zm5.452-2.494c1.055 0 1.842-.025 2.23-.266.339-.202.449-.443.533-1.139h.449v3.519h-.449c-.097-.671-.23-1.013-.582-1.228-.376-.215-1.139-.24-2.182-.24v2.506c0 1.165.618 1.443 2.073 1.443 1.442 0 2.061-.506 2.461-2.076h.485l-.182 2.772h-7.891v-.506c1.091-.038 1.273-.266 1.273-1.443v-5.849c0-1.165-.145-1.38-1.14-1.443v-.506h7.661l.085 2.354h-.521c-.242-1.329-.848-1.683-2.473-1.683h-1.37c-.424 0-.461.063-.461.468v3.317h0zm18.294-3.724c-.129 0-.199.077-.199.218v6.612c0 .985.55 1.458 1.72 1.458 2.047 0 3.183-1.381 3.183-3.952 0-1.369-.304-2.456-.866-3.197s-1.381-1.138-2.375-1.138h-1.463 0zm-3.147 9.067v-.512c1.03-.038 1.229-.256 1.229-1.458v-5.909c0-1.164-.117-1.381-1.041-1.458v-.512h4.446c1.498 0 2.785.537 3.709 1.445s1.463 2.174 1.463 3.645c0 1.394-.503 2.596-1.369 3.427s-2.106 1.33-3.557 1.33h-4.879 0zm15.209-5.354c.98 0 1.712-.026 2.072-.273.315-.208.417-.454.496-1.169h.417v3.61h-.417c-.09-.688-.214-1.039-.541-1.26-.349-.221-1.058-.247-2.027-.247v2.571c0 1.195.574 1.481 1.926 1.481 1.34 0 1.914-.519 2.286-2.13h.451l-.169 2.844H315v-.52c1.013-.039 1.182-.273 1.182-1.48v-6c0-1.195-.135-1.416-1.059-1.48v-.52h7.117l.079 2.415h-.484c-.225-1.364-.788-1.727-2.297-1.727h-1.272c-.394 0-.428.065-.428.48v3.403h0zm23.74 2.463c-.507 1.626-1.942 2.866-4.131 2.866-1.497 0-2.746-.472-3.599-1.29s-1.348-2.01-1.348-3.449c0-1.501.519-2.767 1.422-3.66.89-.893 2.152-1.402 3.673-1.402a5.28 5.28 0 0 1 1.818.31c.581.211.928.099 1.064-.31h.544l.074 3.139h-.495c-.445-1.353-1.472-2.333-2.894-2.333-.977 0-1.731.397-2.251 1.117s-.804 1.774-.804 3.065c0 2.568 1.064 3.995 3.104 3.995 1.311 0 2.536-.608 3.129-2.32l.692.273h0zm10.367 1.042c.544-.695.853-1.712.853-2.965 0-1.303-.309-2.382-.853-3.139-.557-.744-1.361-1.154-2.338-1.154-.99 0-1.781.409-2.325 1.154-.557.757-.866 1.836-.866 3.139 0 1.253.309 2.271.866 2.965.544.707 1.335 1.104 2.325 1.104.977 0 1.781-.397 2.338-1.104m1.496-6.613a4.92 4.92 0 0 1 1.559 3.611c0 1.377-.606 2.605-1.571 3.487-.965.893-2.325 1.439-3.822 1.439s-2.845-.546-3.822-1.439c-.977-.881-1.571-2.109-1.571-3.487 0-1.439.606-2.692 1.571-3.611s2.301-1.464 3.822-1.464 2.869.546 3.834 1.464m6.525 8.462h-4.908v-.512c1.293-.038 1.444-.358 1.444-1.842v-5.141c0-1.394-.138-1.764-1.306-1.841v-.512h4.633v.512c-1.169.077-1.306.447-1.306 1.841v5.141c0 1.483.124 1.803 1.444 1.842v.512zm5.568-2.017c0 1.351.289 1.532 1.757 1.571v.52H362.5v-.52c1.083-.039 1.264-.273 1.264-1.48v-6c0-1.195-.144-1.416-1.132-1.48v-.52h7.247l.12 2.61h-.506c-.18-1.403-.71-1.883-2.203-1.883h-1.541c-.144 0-.217.078-.217.221v4.013c1.95 0 2.492-.169 2.624-1.688h.445v4.065h-.445c-.205-1.533-.698-1.688-2.624-1.688v2.26h0zm12.511-.042c0 1.33.283 1.509 1.72 1.547v.512h-4.69v-.512c1.061-.038 1.237-.269 1.237-1.458v-5.909c0-1.177-.141-1.394-1.108-1.458v-.512h7.094l.118 2.57h-.495c-.177-1.381-.695-1.854-2.157-1.854h-1.508c-.141 0-.212.077-.212.217v3.952c1.909 0 2.439-.166 2.569-1.663h.436v4.003h-.436c-.2-1.509-.683-1.663-2.569-1.663v2.225h0zm15.594-1.969c0 1.449-.284 2.474-.9 3.141s-1.574.961-2.935.961c-2.544 0-3.669-1.102-3.669-3.628v-3.513c0-1.038-.036-1.718-.213-2.038-.142-.244-.367-.308-.923-.308v-.513h4.142v.513c-.331 0-.556.013-.675.051-.127.036-.24.118-.32.231-.249.308-.272 1-.272 2.064v3.359c0 1.949.746 2.859 2.343 2.859 1.621 0 2.438-.974 2.438-2.936v-2.961c0-1.141-.059-1.974-.343-2.32-.225-.244-.426-.346-1.042-.346v-.513H395v.513c-.58 0-.864.077-1.042.32-.272.334-.319 1.244-.319 2.346v2.718h0zm7.005-1.279h.794c1.528 0 2.285-.576 2.285-2.008 0-1.087-.672-1.816-1.796-1.816h-1.063c-.146 0-.22.077-.22.217v3.607zm2.53.665l2.75 3.223c.586.678 1.124.908 1.528.908v.512h-2.774l-3.08-3.888c-.403-.512-.697-.652-.953-.652v2.507c0 1.317.33 1.522 1.528 1.522v.512h-4.607v-.512c1.088 0 1.283-.269 1.283-1.458v-5.909c0-1.189-.11-1.394-1.149-1.458v-.512h4.228c2.359 0 3.703.921 3.703 2.468 0 1.42-.746 2.417-2.456 2.737h0 0zm9.722-.704c.944 0 1.65-.026 1.997-.269.304-.204.402-.447.478-1.151h.401v3.555h-.401c-.087-.678-.206-1.023-.521-1.241-.337-.217-1.02-.243-1.954-.243v2.532c0 1.177.554 1.458 1.856 1.458 1.292 0 1.845-.511 2.203-2.097h.434l-.163 2.801h-7.066v-.512c.977-.038 1.14-.269 1.14-1.458v-5.909c0-1.177-.13-1.394-1.02-1.458v-.512h6.86l.076 2.379h-.467c-.217-1.343-.76-1.701-2.214-1.701h-1.226c-.38 0-.413.064-.413.473v3.351h0zm17.57-37.623c1.35 0 1.181 1.703 2.615 1.703 1.181 0 2.109-.511 2.784-2.044 1.434-3.662 9.616-21.631 16.533-32.788.844-1.448-3.796-4.684-5.483-1.278-3.434 6.78-10.873 24.434-14.009 31.458-.695-.153-1.388-.203-1.934-.203-9.448 0-18.389 13.967-24.378 13.967-.759 0-1.181-.426-1.181-1.192 0-2.214 4.049-6.643 4.049-9.112 0-1.622-4.649-3.293-7.275-3.997 1.006-2.244 2.734-6.838.864-7.074-3.29-.426-6.242 3.236-6.242 6.643 0 .995.309 1.918.713 2.641-2.411 5.338-6.785 11.837-9.823 11.837-1.265 0-1.856-.681 0-5.535.168-.511-.591-1.278-1.772-1.278-2.531 0-7.339 7.154-11.472 7.154-.675 0-1.096-.426-1.096-1.107 0-3.662 4.386-10.56 8.942-10.56 1.518 0 1.012 2.3 2.193 2.3.506 0 3.206-.426 3.206-2.64s-3.121-2.811-4.893-2.811c-9.448 0-18.389 14.733-24.378 14.733-.759 0-1.181-.426-1.181-1.192 0-2.214 3.036-6.302 3.036-9.879 0-1.788-.928-2.64-3.036-2.64a15.31 15.31 0 0 0-10.64 4.272c3.467-7.869 8.446-17.474 14.183-23.604 1.687-1.703-3.965-4.088-5.82-.937-3.156 5.218-6.873 12.209-11.106 21.221-4.539 8.577-11.03 13.355-17.743 13.355-1.603 0-2.699-1.107-2.784-2.64-.084-5.28 4.977-9.453 6.748-9.453 1.94 0 .928 2.214 1.94 2.214.337 0 3.29-.426 3.29-2.64 0-1.618-1.518-2.896-3.965-2.896-10.122 0-15.774 14.904-23.113 14.904-1.096 0-1.856-.596-1.856-1.874 0-4.599 2.446-8.005 4.049-10.816.591-.937-.844-1.703-2.615-1.703-3.965 0-10.882 4.514-13.075 7.239-.675.767-1.181 1.533-.59 2.47.337.511 1.35.767 1.603.681.422-.085 4.133-2.299 6.411-3.832-2.362 6.813-3.206 12.433 3.205 12.433 4.386 0 7.676-1.703 12.822-6.302-.506 5.195 3.121 6.558 6.327 6.558 4.991 0 11.026-2.916 14.321-6.585l-2.427 5.648c-.253.681.759.937 1.94.937 2.531-.085 2.952-.681 3.29-1.703 2.699-6.983 7.086-11.752 10.882-11.752.759 0 1.603.255 1.603 1.107 0 1.277-2.615 5.28-2.615 9.283 0 1.874 1.35 3.151 3.458 3.151 4.133 0 9.532-3.492 12.906-6.813-.844 4.258.675 6.472 4.386 6.472 3.037 0 7.508-2.81 9.954-4.939-.506 3.662 1.265 4.939 4.218 4.939 4.883 0 9.263-6.55 13.52-14.594 1.487.379 3.772 1.217 3.772 1.734 0 .511-4.133 5.45-4.133 10.049 0 1.874 1.434 3.151 3.543 3.151 4.133 0 9.532-3.492 12.906-6.813-.843 4.258.675 6.472 4.386 6.472 2.868 0 7.086-2.555 9.617-4.684-.591 3.577 1.012 4.684 3.374 4.684 3.29 0 6.326-2.299 8.604-5.195 1.181-1.533.337-3.236-1.012-1.959-1.35 1.192-3.796 2.129-5.146 2.129-1.265 0-3.037.171-1.181-4.599.253-.511-.591-1.278-1.771-1.278-2.531 0-6.158 6.302-10.291 6.302-.675 0-1.097-.426-1.097-1.107 0-3.662 4.386-9.794 8.942-9.794m-134.123-28.019c6.495-11.838 13.328-22.398 19.486-29.381 1.097-1.277 1.772-3.917-.506-3.066-10.797 3.917-37.706 13.541-59.891 13.541-10.628 0-12.484-2.47-12.484-5.536 0-12.008 49.516-21.887 75.918-21.887 25.897 0 45.214 2.64 45.214 12.945 0 15.755-39.815 28.7-67.736 33.384m71.195-33.81c0-10.475-15.015-17.118-48.841-17.118-38.297 0-79.799 10.986-79.799 26.911 0 5.706 5.23 9.198 16.112 9.198 15.774 0 36.862-4.003 50.95-8.687-4.555 6.898-9.785 15.415-14.846 24.271-4.977.681-9.447 1.022-12.99 1.022-11.809 0-14.256-1.448-14.256.17 0 6.047 5.567 5.536 11.135 5.536 3.796 0 8.098-.256 12.822-.852-7.592 13.456-14.593 27.167-18.642 37.216-.506 1.278.591 1.874 2.109 1.789 3.29-.17 4.133-1.278 4.977-3.321 4.555-11.582 10.46-24.442 16.787-36.365 31.633-4.769 74.484-20.099 74.484-39.771m-139.015 71.792c-2.193 0-3.205-1.107-1.687-1.959.892-.5 3.209-1.734 7.071-2.271.01.217.015.435.015.653 0 2.725-2.868 3.577-5.399 3.577m4.412-9.445a23.4 23.4 0 0 1 .718 2.904c-1.52.298-3.057.674-4.52 1.132 1.01-.994 2.428-2.503 3.801-4.036M54.248 359.388c-2.024 0-3.458-1.022-3.458-2.981 0-6.671 12.793-15.482 33.613-20.725-10.938 13.812-20.985 23.705-30.155 23.705m190.302-26.23c-1.274-.332-3.889-.34-6.948.004-.592-1.565-1.149-3.277-1.149-5.795 0-2.725 2.868-4.854.169-4.854-1.35 0-4.893 1.107-4.893 4.343 0 .143.026.314.069.507-3.063 4.085-11.826 13.544-15.505 13.544-1.265 0-1.856-.681 0-5.45.253-.511-.591-1.278-1.771-1.278-2.531 0-7.339 7.154-11.472 7.154-.675 0-1.096-.426-1.096-1.107 0-3.662 4.386-10.56 8.941-10.56 1.518 0 1.012 2.3 2.193 2.3.506 0 3.205-.426 3.205-2.64s-3.121-2.811-4.893-2.811c-10.544 0-19.992 15.33-28.006 15.33-1.265 0-1.856-.596-1.856-1.704 0-6.217 5.061-10.39 6.833-10.39 1.94 0 .928 2.214 1.94 2.214.337 0 3.29-.426 3.29-2.64 0-1.618-1.518-2.896-3.965-2.896-10.123 0-15.774 14.904-22.269 14.904-1.097 0-1.856-.596-1.856-1.874 0-4.599 2.278-8.176 4.218-11.412.253-.511-1.181-1.277-3.796-1.277-3.627 0-10.46 14.648-16.28 14.648-1.181 0-1.856-.596-1.772-1.703.338-5.195 3.712-9.794 3.712-10.901 0-1.362-2.446-2.555-22.522-2.555-12.328 0-23.024.893-32.241 2.395 22.904-31.062 46.841-71.717 71.55-71.717 4.049 0 6.326.681 7.929.681 1.265 0 6.664-6.728-1.603-6.728-33.05 0-61.695 47.203-86.082 79.339-29.739 6.634-41.123 19.918-41.123 26.773 0 4.343 3.29 6.387 8.098 6.387 12.091 0 24.557-12.822 37.354-29.565 8.876-1.639 18.872-2.626 29.708-2.626 12.063 0 21.088-.17 21.088 1.873 0 1.533-2.109 4.939-2.109 8.091 0 2.981 1.856 4.769 4.639 4.769 4.168 0 8.214-1.917 13.285-7.277-.589 3.965.44 7.277 4.935 7.277 4.03 0 6.686-1.429 10.806-5.175-.14 4.328 2.485 5.686 5.558 5.686 5.624 0 10.794-3.408 15.851-8.04-1.306 4.956.178 7.529 4.141 7.529 2.807 0 6.882-2.433 9.442-4.519-.911 3.442.738 4.434 3.042 4.434 2.695 0 5.111-1.035 8.734-4.255.322 2.859 4.726 3.83 7.631 3.83 4.724 0 9.279-2.64 9.279-6.558a10.81 10.81 0 0 0-.428-3.028c1.745.045 3.685.239 5.827.643.843.17 2.446-2.725.168-3.321m65.627-16.181c-2.278.852-3.712 2.725-3.29 4.514.59 1.789 2.784 2.47 5.145 1.618 2.278-.851 3.712-2.725 3.29-4.513-.591-1.789-2.784-2.47-5.146-1.618"/></g></svg>