<svg xmlns="http://www.w3.org/2000/svg" width="500" height="625" fill-rule="evenodd" xmlns:v="https://vecta.io/nano"><path fill="#3f6e7c" d="M0 0h500v625H0z"/><path d="M148.135 352.32v-.13c-1.767 0-3.197-1.82-3.197-4.915v-10.4l12.037 15.445h.755v-13.155c0-3.095 1.43-4.915 3.198-4.915v-.13h-6.553v.13c1.768 0 3.225 1.82 3.225 4.915v7.695l-9.775-12.74h-6.057v.13c1.117 0 2.157 1.195 3.042 2.445v10.582c0 3.095-1.455 4.915-3.225 4.915v.127h6.552-.002zm21.565.235c3.485-.235 6.838-2.99 6.605-7.305-.235-4.368-4.575-6.395-8.268-6.005-3.665.415-6.89 2.86-6.552 7.28.365 4.603 4.732 6.293 8.215 6.033v-.002zm-4.135-6.187c-.365-3.433.338-6.812 2.495-7.02 2.157-.183 3.795 2.417 4.135 6.11.313 3.458-.312 6.785-2.495 6.995s-3.745-2.495-4.135-6.085h0zm17.795 6.215c.755 0 1.247-.13 1.637-.337v-.13a2.95 2.95 0 0 1-1.145.26c-1.248 0-1.377-1.637-1.377-3.38v-9.385h2.315v-.13h-2.315v-3.173h-.13c-.495 1.637-2.393 2.21-3.77 2.21v.963h-1.195v.13h1.195v8.865c0 3.847 3.015 4.107 4.785 4.107h0zm7.757-.235c1.093-.312 1.845-1.145 2.34-2.185.442 2.21 3.145 2.417 4.655 2.417.495 0 1.015-.13 1.325-.312v-.155a1.6 1.6 0 0 1-.885.285c-1.195 0-1.248-1.015-1.248-2.782v-6.058c0-3.51-3.173-4.343-5.615-4.343-2.782 0-4.238 1.56-4.655 2.523-.442 1.065.053 2.027.833 2.185.91.183 1.482-.598 1.275-1.3-.208-.728-1.04-1.065-.675-1.897.39-.805 1.455-1.405 3.145-1.405 1.792 0 1.775 1.485 1.77 3.51v2.755c-.26.208-.625.39-1.118.573-2.6.885-6.187.495-6.317 3.717-.105 2.835 3.225 3.067 5.175 2.47l-.005.002zm-1.638-3.068c.155-2.365 1.638-2.6 2.913-3.067.415-.155.755-.312.987-.467v3.745c0 .183.025.337.053.495-.415.885-.988 1.665-1.873 2.08-1.585.805-2.262-.415-2.08-2.782v-.003zm13.945-11.83c1.145 0 2.055-.962 2.055-2.132 0-1.195-.91-2.132-2.055-2.132-1.118 0-2.028.935-2.028 2.132 0 1.17.91 2.132 2.028 2.132zm3.612 14.87v-.13c-1.405 0-1.637-.728-1.637-2.835v-5.85c0-2.625.183-3.77.415-3.9v-.13h-5.977v.13c1.405 0 1.637.727 1.637 2.835v6.89c0 2.105-.235 2.86-1.637 2.86v.13h7.202-.002zm7.965 0v-.13c-1.377 0-1.613-.755-1.637-2.86v-6.005c.415-1.405 1.43-2.835 2.315-3.095.935-.285.415.987 1.405 1.637.597.365 1.845.235 2.08-.755.313-1.17-.545-2.028-2.08-1.898-1.065.105-2.99 1.508-3.692 3.745.025-2.235.182-3.225.415-3.355v-.13h-5.98v.13c1.405 0 1.638.702 1.638 2.835v6.89c0 2.105-.235 2.86-1.638 2.86v.13h7.175zm13.425.235c1.897-.105 3.355-.805 4.343-1.43v-.312c-.885.832-2.835 1.637-4.368 1.637-2.937-.025-4.368-3.042-4.602-6.162-.078-.858.025-1.768.13-2.625h9.49c-.39-3.067-2.782-4.575-6.317-4.42-3.588.155-7.385 2.445-7.175 7.097s4.785 6.423 8.502 6.215h-.002zm1.325-8.97h-5.825c.313-2.235 1.248-4.135 3.172-4.237 2.002-.13 2.575 2.027 2.653 4.237zm10.072 8.97c3.095 0 5.305-1.3 5.615-3.588.703-5.277-7.333-4.785-7.333-7.67 0-1.275.833-1.95 2.157-1.95 1.118 0 2.055.365 2.523.857.625.703-.183 1.223-.26 1.975-.053.755.727 1.275 1.405 1.015.755-.26.885-1.3.313-2.157-.495-.728-1.975-1.82-4.498-1.82-2.393 0-4.472 1.065-4.602 3.38-.285 5.07 7.695 4.212 7.515 7.695-.077 1.377-1.325 2.157-3.015 2.157-1.405 0-2.548-.52-3.043-1.092-.675-.728.26-1.275.313-2.028.053-.702-.572-1.3-1.405-1.04-.675.235-.885 1.325-.285 2.185.495.727 1.95 2.08 4.602 2.08h-.002zm16.95-.235v-.13c-1.742 0-1.95-2.782-1.145-4.965l.728-1.845h5.017l1.665 4.42c.727 1.897.545 2.392-.728 2.392v.127h7.695v-.13c-1.637 0-2.34-1.845-3.043-3.51l-3.255-8.197-2.517-6.363h-.572l-5.485 14.04c-1.015 2.575-2.235 3.717-3.9 4.03v.13h5.537.002zm4.55-7.045h-4.94l2.495-6.37 2.445 6.37zm13.66 7.28c3.095 0 5.305-1.3 5.615-3.588.702-5.277-7.333-4.785-7.333-7.67 0-1.275.833-1.95 2.158-1.95 1.118 0 2.055.365 2.522.857.625.703-.183 1.223-.26 1.975-.053.755.728 1.275 1.405 1.015.755-.26.885-1.3.313-2.157-.495-.728-1.975-1.82-4.497-1.82-2.393 0-4.473 1.065-4.603 3.38-.285 5.07 7.695 4.212 7.515 7.695-.077 1.377-1.325 2.157-3.015 2.157-1.405 0-2.548-.52-3.043-1.092-.675-.728.26-1.275.313-2.028.053-.702-.572-1.3-1.405-1.04-.675.235-.885 1.325-.285 2.185.495.727 1.95 2.08 4.603 2.08h-.002zm12.205 0c3.095 0 5.305-1.3 5.615-3.588.702-5.277-7.332-4.785-7.332-7.67 0-1.275.832-1.95 2.157-1.95 1.118 0 2.055.365 2.522.857.625.703-.182 1.223-.26 1.975-.053.755.728 1.275 1.405 1.015.755-.26.885-1.3.313-2.157-.495-.728-1.975-1.82-4.498-1.82-2.392 0-4.473 1.065-4.603 3.38-.285 5.07 7.695 4.212 7.515 7.695-.077 1.377-1.325 2.157-3.015 2.157-1.405 0-2.548-.52-3.043-1.092-.675-.728.26-1.275.313-2.028.053-.702-.572-1.3-1.405-1.04-.675.235-.885 1.325-.285 2.185.495.727 1.95 2.08 4.603 2.08h-.002zm15.48 0c3.485-.235 6.837-2.99 6.605-7.305-.235-4.368-4.575-6.395-8.267-6.005-3.665.415-6.89 2.86-6.553 7.28.365 4.603 4.733 6.293 8.215 6.033v-.002zm-4.135-6.187c-.365-3.433.337-6.812 2.495-7.02 2.158-.183 3.795 2.417 4.135 6.11.313 3.458-.312 6.785-2.495 6.995s-3.745-2.495-4.135-6.085zm20.94 6.188c1.637-.105 2.965-.728 3.77-1.377v-.312c-.675.78-2.392 1.585-3.795 1.585-2.86-.025-4.368-3.042-4.602-6.162-.235-3.095.702-6.735 3.38-6.942 1.507-.105 2.99.495 3.51 1.247.572.833-.312.885-.598 1.768s.39 1.715 1.405 1.56 1.275-1.43.78-2.365-2.47-2.47-5.095-2.315c-3.615.207-7.618 2.315-7.333 7.097.338 4.965 4.863 6.448 8.58 6.215l-.002.002zm8.615-15.105c1.145 0 2.055-.962 2.055-2.132 0-1.195-.91-2.132-2.055-2.132-1.117 0-2.027.935-2.027 2.132 0 1.17.91 2.132 2.027 2.132zm3.615 14.87v-.13c-1.405 0-1.637-.728-1.637-2.835v-5.85c0-2.625.183-3.77.415-3.9v-.13h-5.98v.13c1.405 0 1.637.727 1.637 2.835v6.89c0 2.105-.235 2.86-1.637 2.86v.13h7.202zm8.382-14.795l2.885-2.885h-2.34l-.675 2.885h.13zm1.195 15.028c1.897-.105 3.355-.805 4.342-1.43v-.312c-.885.832-2.835 1.637-4.368 1.637-2.937-.025-4.368-3.043-4.603-6.162-.077-.858.025-1.768.13-2.625h9.49c-.39-3.068-2.782-4.575-6.317-4.42-3.587.155-7.385 2.445-7.175 7.097s4.785 6.423 8.502 6.215h-.002zm1.325-8.97h-5.825c.313-2.235 1.247-4.135 3.172-4.237 2.002-.13 2.575 2.027 2.653 4.237zm9.813 8.97c3.095 0 5.305-1.3 5.615-3.588.702-5.277-7.333-4.785-7.333-7.67 0-1.275.833-1.95 2.158-1.95 1.118 0 2.055.365 2.522.857.625.702-.183 1.223-.26 1.975-.053.755.728 1.275 1.405 1.015.755-.26.885-1.3.313-2.157-.495-.728-1.975-1.82-4.498-1.82-2.392 0-4.472 1.065-4.602 3.38-.285 5.07 7.695 4.212 7.515 7.695-.077 1.377-1.325 2.157-3.015 2.157-1.405 0-2.548-.52-3.043-1.092-.675-.728.26-1.275.313-2.028.053-.702-.572-1.3-1.405-1.04-.675.235-.885 1.325-.285 2.185.495.727 1.95 2.08 4.603 2.08h-.002zM84.49 314.82v-.287c-3.91 0-7.13-4.025-7.13-10.868V279.86l13.76 17.477 13.725 17.483h.69v-29.095c0-6.843 3.22-10.868 7.073-10.868v-.288h-14.49v.288c3.91 0 7.13 4.025 7.13 10.868v21.505l-25.243-32.66h-9.602v.288c2.242 0 4.657 2.185 6.67 4.657v24.15c0 6.842-3.163 10.868-7.073 10.868v.287h14.49zm54.335.403c11.96-1.035 20.873-9.89 19.78-22.425-1.15-12.593-11.5-19.723-23.403-18.63-11.96 1.035-20.872 9.89-19.78 22.482 1.15 12.535 11.5 19.665 23.402 18.573h0zm-17.652-19.09c-1.035-11.212 5.29-20.93 14.03-21.678 8.74-.805 16.675 7.648 17.653 18.803 1.035 11.213-5.29 20.873-14.03 21.678-8.74.748-16.675-7.647-17.652-18.803zm63.535 18.688v-.287c-3.148 0-3.59-1.96-3.62-5.83l-.002-27.52c0-4.255.345-6.325 3.623-6.325h.977c5.75 0 8.338 4.6 10.005 8.337h.287l-1.265-8.625h-32.315l-1.265 8.625h.287c1.668-3.738 4.255-8.337 10.005-8.337h.977c3.278 0 3.623 2.07 3.623 6.325v27.025c0 4.197-.345 6.325-3.623 6.325v.287h12.305zm17.88 0v-.287c-3.852 0-4.312-6.095-2.53-10.983l1.84-4.715h13.8l3.968 10.408c1.553 4.197 1.15 5.29-1.61 5.29v.287h12.65v-.287c-3.565 0-5.175-4.025-6.67-7.705-1.553-3.68-12.42-32.257-12.42-32.257h-.518l-12.132 31.05c-2.243 5.75-4.945 8.28-8.625 8.913v.287h12.248zm12.995-16.272h-13.57l6.843-17.538 5.26 13.697 1.468 3.84zm39.04 16.675c6.382-.403 9.947-2.473 13.053-4.945v-.862c-3.22 2.933-7.648 5.405-13.11 5.52-9.028.23-16.675-7.647-17.653-18.803-.977-11.212 5.29-20.873 14.03-21.678 2.875-.23 5.98.46 8.798 1.955 3.45 2.012 6.957 6.842 6.957 10.58h.288V272.5h-.288c0 3.91-1.265 3.738-4.197 3.048-3.335-.805-7.935-1.668-11.558-1.38-11.903 1.092-20.873 9.89-19.722 22.482 1.093 12.535 11.442 19.32 23.403 18.573h0zm41.282 0c11.96-1.035 20.873-9.89 19.78-22.425-1.15-12.593-11.5-19.723-23.402-18.63-11.96 1.035-20.873 9.89-19.78 22.482 1.15 12.535 11.5 19.665 23.402 18.573h0zm-17.652-19.09c-1.035-11.212 5.29-20.93 14.03-21.678 8.74-.805 16.675 7.648 17.652 18.803 1.035 11.213-5.29 20.873-14.03 21.678-8.74.748-16.675-7.647-17.652-18.803zM348.4 314.82l2.358-9.717h-.287c-1.668 3.737-5.348 9.43-11.155 9.43h-6.555c-3.277 0-3.565-2.128-3.623-6.325v-13.282h4.197c4.485 0 8.05 3.22 8.05 7.072h.288v-14.433h-.288c0 3.853-3.565 7.072-8.05 7.072h-4.197v-13.455c.058-4.197.345-6.325 3.623-6.325h4.773c5.75 0 9.027 3.91 10.695 7.647h.287l-1.955-7.935h-26.048v.288c3.278 0 3.623 2.127 3.623 6.325v27.025c0 4.197-.345 6.325-3.623 6.325v.287H348.4zm24.033.575c6.555 0 13.11-3.047 13.11-13.11v-21.103c0-4.255.345-6.325 3.623-6.325v-.288h-7.533v.288c3.147 0 3.59 1.907 3.62 5.825l.002 21.603c0 7.647-3.91 12.707-12.822 12.707-5.405 0-9.488-4.6-9.488-12.017v-21.793c.058-4.255.345-6.325 3.623-6.325v-.288H354.32v.288c3.278 0 3.623 2.07 3.623 6.325v21.103c0 10.063 8.223 13.11 14.49 13.11h0zm33.98-.575v-.287c-3.278 0-3.565-2.07-3.623-6.268v-13.34h5.002c5.922.345 6.612 11.673 11.615 17.365 1.552 1.84 4.025 2.53 6.497 2.53h6.153v-.287c-3.507 0-6.555-2.645-8.798-5.98-3.623-5.405-5.002-12.19-10.637-13.915 5.118-.805 9.545-3.852 9.545-9.89 0-7.245-6.555-10.178-12.132-10.178h-15.87v.288c3.277 0 3.565 2.07 3.623 6.325v27.082c-.058 4.197-.345 6.268-3.623 6.268v.287h12.248 0zm1.84-20.183h-5.462v-13.455c.058-4.255.345-6.325 3.623-6.325h1.84c3.335 0 8.337 2.645 8.337 9.89s-4.715 9.89-8.337 9.89h0z" fill="#e8cfa4" fill-rule="nonzero"/></svg>