<svg xmlns="http://www.w3.org/2000/svg" width="194" height="33" xmlns:v="https://vecta.io/nano"><path d="M19.098 0c.966 0 1.859.503 2.342 1.32l4.551 7.696.01-.016 1.537 2.643 10.109 17.391a2.65 2.65 0 0 1 .354 1.28h4.366L29.569 7.685l-2.051 3.627L26 8.627l1.293-2.285A2.62 2.62 0 0 1 29.57 5a2.62 2.62 0 0 1 2.277 1.342l12.801 22.631c.47.831.47 1.854 0 2.684A2.62 2.62 0 0 1 42.371 33H16.66c-.951 0-1.829-.504-2.304-1.322a2.63 2.63 0 0 1 0-2.643h0l10.108-17.391.483-.832-.509.86-5.34-9.031L2.704 30.36h11.1c0 1.458 1.211 2.64 2.704 2.64H2.704c-.966 0-1.858-.503-2.341-1.32s-.483-1.823 0-2.64L16.757 1.32C17.24.503 18.132 0 19.098 0zm6.902 14.287l-9.34 16.07h18.678l-9.338-16.07zm142.484-9.765c.443 0 .862.154 1.182.461a1.65 1.65 0 0 1 .443 1.179v15.125c.055 2.764-1.368 5.331-3.694 6.665a7.42 7.42 0 0 1-7.51.051h-.025c-1.059-.615-1.97-1.538-2.586-2.641-.172-.256-.271-.59-.295-.923a1.49 1.49 0 0 1 .492-1.128c.271-.308.64-.461 1.034-.513a2.14 2.14 0 0 1 1.477.872c.739 1.282 2.068 2.051 3.472 2 1.144.035 2.254-.415 3.075-1.245a4.5 4.5 0 0 0 1.284-3.164V6.189c-.009-.449.171-.88.492-1.179.32-.308.739-.487 1.157-.487zm-67.436.727c.419 0 .813.174 1.085.473.237.283.399.643.419.996v13.009c.025 1.645-.37 3.29-1.159 4.735a8.25 8.25 0 0 1-3.204 3.314 8.67 8.67 0 0 1-4.585 1.221c-1.602 0-3.204-.399-4.634-1.196a8.43 8.43 0 0 1-3.204-3.29 9.7 9.7 0 0 1-1.158-4.404l-.001-13.215c0-.424.148-.847.493-1.146a1.64 1.64 0 0 1 2.292 0 1.61 1.61 0 0 1 .468 1.146v12.809a6.13 6.13 0 0 0 .789 3.14c1.016 1.799 2.906 2.911 4.954 2.916 1.586.007 3.109-.631 4.225-1.769s1.735-2.683 1.715-4.286V6.894c0-.424.123-.847.394-1.171.296-.324.69-.498 1.109-.473zm88.785-.548c1.098.381 2.106 1.001 2.955 1.82.443.359.739.897.739 1.461a1.57 1.57 0 0 1-.443 1.102 1.38 1.38 0 0 1-1.083.513 1.16 1.16 0 0 1-.739-.282 7.73 7.73 0 0 0-5.27-2.102c-1.231-.077-2.462.256-3.521.923-.815.566-1.304 1.518-1.304 2.538s.489 1.972 1.304 2.538a12.02 12.02 0 0 0 3.891 1.538c1.453.282 2.856.769 4.211 1.359 1.034.487 1.921 1.231 2.536 2.205.64 1.128.936 2.384.886 3.692.025 1.282-.345 2.512-1.059 3.538-.739 1.077-1.773 1.897-2.955 2.41a11.81 11.81 0 0 1-8.348.154h.025c-1.305-.513-2.512-1.282-3.546-2.307a1.87 1.87 0 0 1-.689-1.384c.005-.431.184-.84.492-1.128a1.45 1.45 0 0 1 1.059-.487 1.35 1.35 0 0 1 .96.385c.788.769 1.724 1.41 2.709 1.871a8.67 8.67 0 0 0 3.201.615c1.231.026 2.462-.308 3.521-1.025.862-.513 1.428-1.461 1.428-2.512.025-1.102-.517-2.153-1.428-2.769-1.324-.801-2.775-1.348-4.285-1.615-2.265-.513-4.014-1.282-5.245-2.384s-1.822-2.641-1.822-4.589c-.025-1.282.32-2.538 1.034-3.589.714-1.025 1.674-1.846 2.807-2.359a10.79 10.79 0 0 1 7.978-.128zm-115.53.548c.37 0 .739.125.986.424h.049c.216.24.375.556.395.898V27.03c0 .424-.148.847-.444 1.171a1.52 1.52 0 0 1-1.134.473c-.246 0-.493-.05-.739-.125a1.23 1.23 0 0 1-.518-.349l-13.015-17.12V27.18a1.43 1.43 0 0 1-.419 1.065c-.281.28-.666.427-1.06.406-.37 0-.739-.15-.986-.424-.268-.271-.419-.638-.419-1.022V6.845c0-.424.173-.847.493-1.146a1.47 1.47 0 0 1 1.06-.449 1.87 1.87 0 0 1 .739.15c.246.075.444.249.592.424l12.941 17.17V6.72a1.43 1.43 0 0 1 .419-1.065c.281-.28.666-.427 1.06-.406zm60.933 0h15.135c.419 0 .838.125 1.159.424a1.46 1.46 0 0 1 .468 1.121 1.43 1.43 0 0 1-.493 1.097 1.55 1.55 0 0 1-1.134.399h-5.867v18.79c0 .424-.148.822-.468 1.121a1.81 1.81 0 0 1-2.416 0c-.31-.289-.489-.695-.493-1.121V8.29h-5.867c-.419 0-.813-.125-1.134-.424a1.48 1.48 0 0 1-.468-1.121c0-.399.148-.797.444-1.072.32-.299.739-.449 1.134-.424zM126.535 5c.394 0 .789.199 1.06.498.271.249.444.623.468.997 0 .374-.123.698-.345.997l-6.902 9.27 6.902 9.345h.025c.189.278.284.61.271.947.025.424-.148.847-.468 1.146a1.57 1.57 0 0 1-1.06.424c-.518.025-1.011-.249-1.306-.673l-6.409-8.672-6.31 8.672c-.283.437-.765.699-1.282.698a1.39 1.39 0 0 1-1.011-.424c-.246-.249-.419-.598-.419-.947 0-.399.148-.797.394-1.097l6.803-9.345-6.828-9.27a1.56 1.56 0 0 1 .123-2.093 1.54 1.54 0 0 1 1.824-.299c.237.11.441.282.592.498l6.359 8.623 6.261-8.548c.271-.424.739-.698 1.257-.748z" fill="#d8caca"/></svg>