<svg xmlns="http://www.w3.org/2000/svg" width="42" height="31" xmlns:v="https://vecta.io/nano"><path d="M13.232 1.186C6.749 5.473 2.542 10.2.88 15.043c-1.408 4.111-1.108 8.618.763 11.676 1.168 1.902 3.682 3.628 5.974 4.097 1.572.322 4.477.205 5.914-.234 2.83-.863 5.015-2.839 5.749-5.195.419-1.332.539-3.849.254-5.195-.553-2.575-2.291-4.785-4.687-5.955-1.587-.775-2.575-.98-4.461-.878-1.647.073-2.83.41-4.028 1.141-.405.234-.763.41-.793.366-.134-.131.419-2.473.824-3.439 1.153-2.839 4.312-6.159 8.713-9.173l1.182-.805-.48-.717C15.535.336 15.265 0 15.176 0c-.075 0-.958.541-1.947 1.185l.003.001zM35.673.747c-4.117 2.634-7.59 5.633-9.866 8.545-3.428 4.376-4.76 9.495-3.713 14.193.763 3.38 2.844 5.794 6.093 6.994 1.182.453 1.288.453 3.609.453 2.186 0 2.5-.044 3.593-.395 1.617-.527 2.815-1.244 3.877-2.34 1.601-1.654 2.351-3.102 2.65-5.107.584-3.965-1.947-8.004-5.869-9.32-1.318-.453-3.473-.556-4.821-.249-1.048.249-2.559.922-3.338 1.493-.254.191-.494.352-.539.352s-.045-.352-.014-.775c.269-2.926 1.841-5.678 5-8.662 1.288-1.229 4.386-3.644 5.464-4.258.254-.147.24-.205-.224-.907-.269-.424-.553-.761-.614-.761s-.643.336-1.288.746z" fill="#afa7a7"/></svg>