<svg xmlns="http://www.w3.org/2000/svg" width="185" height="49" fill="#d8caca" xmlns:v="https://vecta.io/nano"><g opacity=".405"><path d="M12.981 8v13.645H.426c-.235 0-.426-.191-.426-.426a.43.43 0 0 1 .124-.301L12.981 8zm14.004 40.329V35.717h13.58L27.714 48.63c-.166.167-.436.167-.603.001a.43.43 0 0 1-.126-.302z"/><path d="M12.981 21.645h13.578c.235 0 .426.191.426.426v13.645H13.833c-.471 0-.852-.382-.852-.852V21.645z"/></g><path d="M161.716 10.261c3.332 0 6.178 1.276 8.537 3.829s3.539 5.681 3.539 9.385-1.18 6.832-3.539 9.385-5.205 3.829-8.537 3.829c-3.464 0-6.137-1.218-8.018-3.654v12.817c0 .081-.065.147-.146.147h-6.092c-.081 0-.146-.066-.146-.147V11.109c0-.081.065-.147.146-.147h6.092c.081 0 .146.066.146.147v2.806c1.881-2.436 4.553-3.654 8.018-3.654zm-33.644 0c3.464 0 6.153 1.218 8.067 3.654v-2.806c0-.081.065-.147.146-.147h6.092c.081 0 .146.066.146.147v24.732c0 .081-.065.147-.146.147h-6.092c-.081 0-.146-.066-.146-.147v-2.806c-1.914 2.436-4.603 3.654-8.067 3.654-3.299 0-6.129-1.276-8.488-3.829s-3.539-5.681-3.539-9.385 1.18-6.832 3.539-9.385 5.188-3.829 8.488-3.829zm-61.959 0c2.013 0 3.844.459 5.494 1.376 1.498.833 2.692 1.927 3.615 3.395a12.25 12.25 0 0 1 .19.316c.041.07.018.161-.052.202l-5.399 2.417c-.095.043-.207.009-.264-.079-.808-1.247-2.003-1.871-3.585-1.871-.825 0-1.509.184-2.054.551s-.817.868-.817 1.502c0 .667.437 1.21 1.312 1.627s1.938.784 3.192 1.101 2.508.717 3.761 1.201 2.318 1.293 3.192 2.428 1.312 2.553 1.312 4.255c0 2.569-.949 4.547-2.846 5.931s-4.265 2.077-7.102 2.077c-4.967 0-8.389-1.897-10.267-5.692l-.062-.127c-.035-.073-.005-.161.068-.197l5.374-2.408a.29.29 0 0 1 .378.134l.002.004c.836 1.62 2.338 2.43 4.505 2.43 2.277 0 3.415-.717 3.415-2.152 0-.667-.437-1.21-1.312-1.627s-1.938-.793-3.192-1.126a33.11 33.11 0 0 1-3.761-1.251c-1.254-.501-2.318-1.293-3.192-2.378s-1.312-2.444-1.312-4.079c0-2.469.899-4.413 2.697-5.831s4.034-2.127 6.706-2.127zm22.803-6.302c.008.019.012.039.012.06v6.943h5.446c.081 0 .146.066.146.147v5.912c0 .081-.065.147-.146.147h-5.446V27.58c0 .868.214 1.502.643 1.902s1.056.626 1.881.676c.755.046 1.675.043 2.761-.009l.154-.008c.081-.004.149.058.153.14v5.577c0 .075-.056.138-.13.147l-.101.011c-4.266.46-7.282.034-9.049-1.277-1.798-1.335-2.697-3.721-2.697-7.158V17.169h-4.16c-.081 0-.146-.066-.146-.147v-5.912c0-.081.065-.147.146-.147h4.16V6.827c0-.117.068-.223.174-.27l6.005-2.673c.074-.033.16.001.193.075zm24.556 6.504c.081-.001.147.064.148.145V17.4c0 .134-.108.243-.241.243h-.011 0l-.011-.001h0c-1.841-.168-3.494.241-4.959 1.229-1.534 1.034-2.301 2.753-2.301 5.156v11.816c0 .081-.065.147-.146.147h-6.092c-.081 0-.146-.066-.146-.147V11.109c0-.081.065-.147.146-.147h6.092c.081 0 .146.066.146.147v4.157c.594-1.602 1.575-2.803 2.945-3.604 1.253-.733 2.637-1.13 4.153-1.193a11.39 11.39 0 0 1 .277-.007zm70.36.499c.081 0 .146.066.146.147v24.732c0 .081-.065.147-.146.147h-6.092c-.081 0-.146-.066-.146-.147V11.109c0-.081.065-.147.146-.147h6.092zM39.713 8c.471 0 .852.382.852.852v26.864h-13.58V22.498c0-.471-.382-.852-.852-.852H12.981V8h26.732zm89.547 8.418c-1.98 0-3.613.659-4.9 1.977s-1.93 3.012-1.93 5.081.643 3.771 1.93 5.106c1.287 1.301 2.92 1.952 4.9 1.952s3.621-.659 4.924-1.977 1.955-3.012 1.955-5.081-.652-3.762-1.955-5.081-2.945-1.977-4.924-1.977zm31.268 0c-1.98 0-3.613.659-4.9 1.977s-1.93 3.012-1.93 5.081.643 3.771 1.93 5.106c1.287 1.301 2.92 1.952 4.9 1.952s3.621-.659 4.924-1.977 1.955-3.012 1.955-5.081-.652-3.762-1.955-5.081-2.945-1.977-4.924-1.977zM180.762 0a3.75 3.75 0 0 1 2.796 1.201c.775.801 1.163 1.735 1.163 2.803s-.388 1.994-1.163 2.778a3.79 3.79 0 0 1-2.796 1.176c-1.056 0-1.971-.392-2.747-1.176s-1.163-1.71-1.163-2.778.388-2.002 1.163-2.803S179.706 0 180.762 0z"/></svg>