<svg xmlns="http://www.w3.org/2000/svg" width="226" height="57" xmlns:v="https://vecta.io/nano"><path d="M28.072-.002c15.504 0 28.072 12.568 28.072 28.072S43.576 56.142 28.072 56.142 0 43.574 0 28.07 12.568-.002 28.072-.002zm80.883 20.673l-7.847 21.753-.328.917-.168.462-.085.231-.174.462c-1.324 3.46-3.116 6.738-7.429 6.738-1.252 0-1.964-.168-2.674-.293h0l.107-1.359c.149-.963.825-1.588 1.72-1.539.085.006.173.016.259.016 3.509 0 4.679-4.84 4.679-5.26 0-.457-.502-1.543-.754-2.254h0l-7.223-19.874h2.737c.008 0 .011.005.021.005.832 0 1.636.573 1.982 1.346h0l5.281 16.27h.084l5.399-16.278c.35-.769 1.151-1.337 1.977-1.337.01 0 .015-.005.021-.005h0v-.002h2.415zm116.186 0l-7.849 21.753-.245.687-.166.462-.084.231-.172.463c-1.334 3.543-3.107 6.969-7.517 6.969-1.253 0-1.966-.168-2.675-.293h0l.105-1.359c.154-.963.827-1.588 1.722-1.539.088.006.174.016.259.016 3.51 0 4.681-4.84 4.681-5.26 0-.457-.505-1.543-.755-2.254h0l-7.224-19.874h2.737c.007 0 .012.005.02.005.83 0 1.634.573 1.98 1.346h0l5.282 16.27h.088l5.397-16.278c.349-.769 1.151-1.337 1.978-1.337.008 0 .012-.005.022-.005h0v-.002h2.416zM40.345 10.385c-2.851.1-5.342 1.672-7.193 3.846-2.053 2.384-3.417 5.213-4.401 8.099-1.759-1.442-3.116-3.308-5.938-4.122-2.183-.627-4.473-.369-6.58 1.201-.999.746-1.686 1.873-2.013 2.932-.848 2.754.889 5.205 1.679 6.086l1.725 1.846c.356.363 1.211 1.309.794 2.664-.453 1.475-2.229 2.428-4.052 1.867-.814-.252-1.984-.857-1.721-1.709.108-.35.358-.613.493-.912.123-.26.181-.454.218-.568.333-1.088-.122-2.502-1.286-2.861-1.087-.332-2.197-.068-2.628 1.329-.49 1.591.271 4.472 4.344 5.729 4.772 1.467 8.809-1.133 9.381-4.521.361-2.122-.599-3.7-2.354-5.729l-1.43-1.581c-.867-.867-1.164-2.342-.268-3.475.757-.957 1.834-1.365 3.601-.886 2.577.698 3.726 2.487 5.642 3.93-.791 2.595-1.309 5.2-1.776 7.538l-.287 1.74c-1.371 7.186-2.416 11.131-5.134 13.396-.547.391-1.331.973-2.51 1.014-.619.02-.818-.406-.828-.592-.014-.434.353-.633.596-.828.363-.199.912-.527.875-1.578-.041-1.246-1.071-2.324-2.559-2.273-1.117.037-2.816 1.086-2.752 3.01.066 1.984 1.916 3.473 4.706 3.377 1.492-.049 4.822-.656 8.103-4.557 3.819-4.473 4.888-9.6 5.692-13.352l.896-4.953a16.85 16.85 0 0 0 1.611.113c4.757.102 7.136-2.363 7.173-4.155.023-1.085-.712-2.152-1.742-2.128-.736.021-1.662.511-1.884 1.529-.217 1 1.514 1.902.161 2.779-.961.623-2.684 1.061-5.11.705l.442-2.439c.899-4.624 2.011-10.312 6.224-10.449.307-.016 1.431.014 1.457.756.007.248-.054.312-.344.88-.297.442-.408.819-.395 1.253.042 1.18.939 1.956 2.238 1.91 1.737-.057 2.237-1.748 2.209-2.618-.072-2.045-2.226-3.335-5.075-3.243zm129.861 9.787c6.474 0 10.813 4.677 10.813 11.147 0 6.097-4.424 11.146-10.813 11.146-6.428 0-10.852-5.049-10.852-11.146 0-6.47 4.338-11.147 10.852-11.147zm-89.855-8.914a20.78 20.78 0 0 1 4.86.617h0l-.072 1.287c-.105.886-.86 1.589-1.76 1.523-.013 0-.011.014-.022.014a12.63 12.63 0 0 0-2.812-.295c-.006 0-.016 0-.028.002-2.508-.003-5.764.928-5.774 4.471.062 3.336 3.609 4.463 6.849 6.121 3.305 1.68 6.414 3.731 6.421 8.613-.019 6.329-4.769 8.766-10.881 8.811h0-.022c-1.989 0-3.966-.545-5.895-1.168h0l.118-1.146c.115-1.027.836-1.803 1.715-1.658 1.404.443 3.069.824 4.603.83 2.623-.006 6.429-1.459 6.447-5.402-.031-3.781-3.596-5.073-6.852-6.639-3.322-1.608-6.408-3.383-6.414-7.963.013-5.239 4.064-7.984 9.519-8.018zm115.047 8.913c5.511 0 7.977 3.426 7.977 9.145h0v10.948a1.78 1.78 0 0 1-1.773 1.703h0-.005v-.002h-2.151V30.943c0-4.97-1.08-7.39-4.507-7.597-4.467 0-6.473 3.59-6.473 8.766h0v8.211c-.072.916-.829 1.643-1.763 1.643h0-2.161V20.672h1.998c.007 0 .009.005.02.005a1.78 1.78 0 0 1 1.779 1.783l.004.006v1.591h.082c1.172-2.423 4.009-3.886 6.973-3.886zm-60.102 0c5.431 0 7.389 3.508 7.389 8.143h0v12.264c-.177.793-.884 1.389-1.731 1.389h0-.005v-.002h-2.185V29.274c0-2.631-.627-5.928-3.8-5.928-4.007 0-5.595 3.924-5.595 7.889h0v9.107c-.083.908-.832 1.623-1.762 1.623h0-2.159V29.274c0-2.631-.631-5.928-3.802-5.928-4.007 0-5.592 3.924-5.592 7.889h0v8.895c-.009.018-.018.028-.018.055a1.78 1.78 0 0 1-1.78 1.781h0-2.129V20.672h1.877a1.79 1.79 0 0 1 1.796 1.767h0v1.324h.084c1.502-2.465 3.632-3.592 6.765-3.592 2.461 0 4.925 1.254 6.051 4.135 1.462-3.047 4.676-4.135 6.596-4.135zm21.096-9.748c1 0 1.837.124 2.63.25h0l-.068 1.286c-.052.938-.834 1.701-1.772 1.633-.078.008-.144.002-.206.002-3.379 0-3.798 2.174-3.798 5.055v2.024h5.638v1.481a1.78 1.78 0 0 1-1.713 1.694h0-3.926v16.578c-.122.863-.856 1.541-1.756 1.541h0-2.167V23.848h-3.243a1.79 1.79 0 0 1-1.772-1.522h0v-1.653h5.015v-1.69c0-5.178 1.335-8.56 7.138-8.56zm13.814 12.924c-4.216 0-6.68 3.924-6.68 7.972 0 3.802 2.047 7.978 6.68 7.978 4.593 0 6.637-4.176 6.637-7.978 0-4.048-2.463-7.972-6.637-7.972z" fill="#d8caca"/></svg>