<svg xmlns="http://www.w3.org/2000/svg" width="190" height="69" fill="none" xmlns:v="https://vecta.io/nano"><path fill-rule="evenodd" d="M120.926.175c-.467.719-.669 2.591-.232 2.151.056-.056.112-.409.124-.785.013-.389.094-.855.187-1.083.183-.448.137-.616-.079-.284zm8.902 1.87c-.608.578-.912 1.002-.912 1.271 0 .313.156.227.37-.203.109-.219.424-.637.7-.929l.503-.579c0-.133-.194-.004-.661.44zm-14.546 2.261c-.13.34.013 1.667.234 2.184.201.468.24.513.481.541.299.036.327-.158.059-.402-.214-.195-.52-1.163-.603-1.907-.064-.574-.088-.633-.171-.416zm5.863 1.536c-.523.09-.896.339-1.218.811l-.605.845c-.168.222-.331.515-.364.652s-.111.354-.174.482c-.516 1.035-.578 2.099-.198 3.444.176.625.131 2.121-.077 2.54-.075.151-.118.305-.095.342s-.061.356-.185.71c-.234.667-.297 1.248-.137 1.248.051 0 .093-.098.093-.217s.142-.581.315-1.026c.551-1.411.72-3.405.334-3.924-.075-.102-.209-1.065-.201-1.452.013-.643.745-2.436 1.284-3.144.871-1.145 1.147-1.266 2.153-.943.319.102.675.186.791.186s.413.087.659.194l.447.194-.417.217c-.674.351-1.551 1.466-1.793 2.28-.283.951-.304 1.069-.376 2.095-.058.814-.255 1.788-.428 2.117-.047.089-.086.256-.086.372s-.166.457-.37.759-.37.599-.37.661-.134.297-.299.523l-.393.558c-.614.976-.642 1.005-.829.868-.273-.201-.583-.161-.751.097-.187.287.069.823.535 1.122 1.864 1.195 1.903 1.21 2.761 1.096.936-.124 1.486-.454 1.962-1.174.24-.363.457-.574.694-.674.346-.147.482-.181 1.796-.449 2.729-.557 3.899-1.457 4.608-3.548.661-1.949.367-2.774-1.563-4.375l-.827-.642c-.085-.046-.457-.388-.828-.761-.446-.449-.775-.7-.971-.743a3.15 3.15 0 0 1-.621-.228c-.178-.09-.512-.194-.74-.232a3.87 3.87 0 0 1-.806-.244 6.8 6.8 0 0 0-1.016-.323c-.346-.081-.67-.18-.722-.221-.14-.111-.607-.156-.972-.094zm3.898 1.333l.959.386c.287.104.603.316.833.562.203.217.536.507.74.643 2.441 1.636 3.127 3.011 2.368 4.743-.092.209-.222.59-.289.846-.337 1.284-1.76 2.136-4.658 2.788-1.523.343-1.761.452-2.044.938-.356.612-1.437 1.446-1.437 1.108 0-.23-.519-.671-1.1-.935a11.66 11.66 0 0 1-.995-.522l-.476-.287.555-.702c.305-.386.669-.94.809-1.231s.359-.67.487-.843c.405-.55.764-1.903.904-3.405.196-2.122 1.071-3.759 2.221-4.156.546-.189.545-.189 1.123.067zm9.424.189c-1.56.585-1.854.742-1.695.902.071.072.228.036.55-.126.248-.124.753-.341 1.122-.481s.648-.293.619-.34c-.069-.112-.205-.102-.596.045zm-25.348 5.825c0 .518 2.209.709 2.754.238.335-.29.212-.388-.255-.2-.419.169-.903.192-1.389.067-.585-.151-1.11-.201-1.11-.105zm24.854 3.231c-.184.186.215.412 1.354.77 1.199.376.882.002-.49-.578-.628-.265-.761-.295-.864-.192zm-15.223 1.19c.315.18.366.241.241.289-.105.04-.269-.037-.485-.228-.394-.348-.299-.371.244-.061zm-.01.583c0 .172-.097.148-.341-.083-.302-.285-.266-.398.063-.202.153.091.278.219.278.285zm1.014-.057c.205.107.348.236.318.285s-.134.018-.24-.078c-.101-.092-.295-.217-.43-.278s-.195-.113-.133-.118.28.081.485.188zm-18.733.019c.755.459 1.539 1.543 1.727 2.388.406 1.83.415 2.284.054 2.68-.196.215-.103.301.102.095.134-.134-.042.468-.181.622-.044.049-.08.138-.08.2 0 .395-.931.969-1.573.969-.999 0-2.349-1.328-2.186-2.149.035-.174.021-.259-.035-.224-.123.076-.117-.579.013-1.343.289-1.708 1.21-2.439 2.649-2.103.431.101.381-.086-.072-.269-1.485-.598-2.521.369-2.959 2.761-.489 2.673 2.55 4.805 4.164 2.922.178-.208.328-.443.333-.523s.08-.282.166-.45c.746-1.453-.244-4.879-1.6-5.532-.404-.195-.828-.23-.521-.044zm18.366.204c.064.077.173.14.243.14s.127.042.127.093-.024.093-.055.093c-.108 0-.592-.321-.592-.393 0-.12.154-.083.277.067zm1.397.324l.338.283c.16.136.145.37-.023.37-.232 0-.909-.668-.768-.758.171-.109.205-.101.453.105zm-.432.421c.424.391.293.418-.34.072-.43-.235-.448-.259-.244-.317l.226-.072c.003-.005.164.137.358.317zm7.685 2.84c-.228.371.971 1.899 1.261 1.607.052-.052-.013-.192-.166-.358-.139-.15-.379-.499-.535-.776-.29-.519-.449-.653-.56-.473zm-16.558.649c-.431.627-.081 1.143.561.826.46-.227.565-.916.14-.916-.096 0-.198-.063-.227-.14-.085-.222-.201-.166-.474.23zm.69.491c.004.107-.441.083-.509-.028-.033-.054-.036-.161-.007-.238.055-.144.508.09.516.265zm-2.733.621c-1.634.849-2.761 1.618-4.573 3.124l-3.783 2.877c-.031-.034-.006-.079.054-.101s.09-.094.065-.16.419-.639.987-1.274l1.554-1.818c1.522-1.939 1.494-1.898 1.285-1.893-.064.002-.249.18-.411.396l-1.158 1.51-1.281 1.489-.902 1.013-.203.268-.005-.362c-.025-1.802-.135-3.015-.273-3.015-.05 0-.069 1.135-.047 2.769a44.24 44.24 0 0 1-.287 6.33c-.096.908.104.705.23-.233l.318-3.412c.031-.96.059-1.124.212-1.228l.546-.4 1.11-.836 2.082-1.687c1.675-1.412 3.229-2.464 4.695-3.178.683-.333 1.133-.606 1.133-.689 0-.191-.003-.19-1.348.508zm-3.957-.195c-.413.459.018 1.062.449.629.274-.276.289-.437.061-.645-.217-.197-.321-.194-.51.016zm.329.405c-.141.142-.245.037-.167-.168.046-.121.086-.133.169-.05s.082.135-.002.219zm-91.976.828c0 .494.182 1.115.345 1.178.201.078.236-.034.084-.269-.077-.12-.169-.438-.205-.708-.079-.603-.225-.733-.225-.2zm-1.258.356c.074.749.905 2.164 1.136 1.932.03-.03-.121-.326-.335-.658s-.447-.794-.517-1.027c-.215-.718-.34-.828-.283-.247zm111.827.215c-.254.256.028 1.719.353 1.828.113.038.097-.346-.043-1.055-.02-.102-.039-.343-.043-.535-.008-.363-.078-.427-.267-.237zM15.276 26.953c-.027.044-.076.249-.109.455-.067.419.107.66.189.263l.096-.464c.046-.225-.081-.409-.176-.254zm-.796.844c0 .961 1.438 4.907 1.966 5.393.349.322.418.076.086-.305-.346-.396-1.124-2.387-1.574-4.03-.311-1.135-.477-1.503-.477-1.058zm-2.683.083c0 .325 1.677 1.603 2.103 1.603.399 0 .365-.203-.049-.288-.366-.075-.568-.21-1.294-.864-.548-.494-.76-.619-.76-.451zm4.525.09c-.016.35-.097.747-.272 1.341-.219.741-.223.823-.048.823.081 0 .176-.157.237-.396l.188-.721c.114-.433.111-1.21-.005-1.21-.051 0-.096.073-.1.163zm94.462 1.106c-3.728.218-7.756 1.243-7.368 1.875.041.067.137.028.275-.111 1.2-1.207 8.098-1.874 12.736-1.231l2.683.339c.585.063 1.768.213 2.628.333 1.018.142 1.616.188 1.712.132.08-.048.126-.093.1-.101-.3-.095-3.418-.535-4.861-.685-.811-.084-2.038-.238-2.725-.342-1.22-.184-3.817-.289-5.18-.209zm-96.027 2.179c0 .21.382.834.511.834.188 0 .175-.06-.117-.525-.247-.393-.393-.508-.393-.309zm84.194 2.28c-.512.355-.762.557-1.294 1.05a8.53 8.53 0 0 1-.723.584c-.214.151-.526.404-.694.561s-.408.354-.535.437-.439.325-.694.537-.918.732-1.474 1.155-1.118.869-1.248.99-.263.221-.295.221-.309.199-.615.442-.65.505-.765.582c-.423.283-.737.577-.693.649.025.041-.038.096-.14.123-.122.032-.218-.012-.28-.129-.317-.595-2.22.531-2.086 1.233.056.294-.281.519-2.165 1.443-2.281 1.118-4.252 1.941-5.458 2.279-.178.05-.532.169-.786.265s-.692.222-.971.282-.665.167-.857.239-.379.123-.416.113-.485.075-.994.19l-1.896.429c-4.246.959-10.743.886-16.358-.184-1.418-.27-1.472-.315-.913-.758.776-.615 2.256-3.656 2.393-4.918.051-.47-.134-.401-.251.093-.517 2.174-2.362 5.273-2.874 4.825-.24-.21-.696-1.112-.909-1.8l-.203-.649c-.035-.109-.059-.112-.118-.017-.068.111.066.863.223 1.248.104.256-.159.2-.556-.118s-.506-.298-.318.056c.142.268.777.636.969.562.076-.029.161.064.225.248.056.162.236.437.4.61.287.303.289.312.067.244-.127-.039-.918-.206-1.758-.37-1.431-.281-3.888-.886-4.302-1.06l-.416-.175a24.21 24.21 0 0 0-.74-.285c-2.104-.774-4.643-1.841-5.412-2.273l-.925-.521-1.018-.556c-.153-.076-.402-.226-.555-.334s-.413-.268-.578-.358c-.839-.454-.991-.554-.768-.502.844.195.514-.934-.472-1.615-.562-.388-.736-.348-.911.208-.183.582-.16.585-1.432-.182a4.84 4.84 0 0 0-.326-.179c-.076-.037-.465-.269-.863-.516s-.757-.449-.797-.449-.172-.077-.293-.17c-.256-.198-1.1-.65-1.857-.995-.876-.399-3.203-1.128-6.504-2.038-2.439-.672-7.203-.843-10.454-.374-.846.122-1.882.345-2.359.509a6.88 6.88 0 0 1-.754.217c-.278.049-1.844.654-2.224.859-.137.074-.429.198-.648.276-1.938.685-5.532 2.747-5.532 3.174 0 .187.226.151.422-.067s1.295-.97 1.844-1.26l.925-.497c.305-.165.805-.407 1.11-.536a49.43 49.43 0 0 0 1.203-.535c1.528-.707 3.174-1.274 4.965-1.711 3.139-.765 9.068-.549 12.335.449l1.064.316c2.617.752 4.915 1.572 5.522 1.968.111.073.361.222.555.331 3.091 1.738 3.689 2.137 3.763 2.512.122.616 1.154 1.169 1.422.762.149-.225.033-.268 1.273.469 1.878 1.116 4.127 2.299 4.369 2.299.052 0 .147.063.21.14s.183.141.266.143.359.106.613.232.494.229.533.23.247.081.463.18.746.303 1.178.455l1.832.657a20.09 20.09 0 0 0 1.85.57l1.175.276c.204.048.745.154 1.203.235s.999.189 1.203.239.557.128.786.171l1.6.325c.651.135 1.359.267 1.573.293a23.22 23.22 0 0 1 .898.134c3.832.656 10.605.542 13.969-.234l1.943-.419c.738-.154 1.445-.316 1.573-.359s.46-.13.74-.191.592-.148.694-.193.619-.214 1.15-.375c.91-.276 2.069-.746 3.101-1.258.252-.125.494-.227.538-.227.095 0 2.534-1.227 3.399-1.709a14.79 14.79 0 0 1 .833-.437 18.03 18.03 0 0 0 .575-.271c.291-.144.36-.15.45-.04.183.222.829.036 1.265-.363.251-.231.279-.67.047-.759-.159-.061.154-.415.373-.421.09-.002 1.042-.703 1.361-1a13.75 13.75 0 0 1 1.252-.956c.185-.126 1.177-.936 1.523-1.243a3.48 3.48 0 0 1 .439-.298c.165-.096.301-.204.301-.24s.302-.285.671-.554.754-.579.856-.688a2.58 2.58 0 0 1 .416-.347c.323-.206 2.132-1.729 2.138-1.8.013-.157-.117-.111-.557.194zm25.001 2.05c-.028.074-.09.11-.138.08-.122-.075-.988.529-1.057.738-.031.094-.175.213-.321.264-.181.064-.297.193-.368.412-.058.176-.144.296-.19.266s-.085.006-.085.078-.084.207-.185.299-.185.241-.185.331-.104.261-.23.381-.23.289-.231.376-.067.222-.147.302c-.088.089-.122.219-.086.332.08.256.174.234.33-.079l.406-.815c.151-.302.338-.6.416-.663s.102-.115.053-.116.003-.068.116-.148.205-.205.205-.279.042-.134.093-.134.092-.07.092-.155.028-.127.063-.093.19-.074.346-.241c.508-.542 1.259-1.001 1.64-1.001.538 0 .541 1.812.005 2.688-.425.694-.573.915-.756 1.129-.386.452-1.02 1.327-1.02 1.407 0 .045-.043.082-.096.082-.1 0-.737.605-.737.7 0 .104-1.156 1.158-1.272 1.16-.063.001-.115.037-.115.081s-.254.279-.563.524-.691.563-.848.708c-.307.281-.418.287-.395.02s.263-.865.348-.865c.134 0 .625-1.212.625-1.545 0-.562-.348.052-.586 1.033-.043.175-.217.436-.301.45-.097.016-.507 1.142-.44 1.209.1.101-.678.787-1.078.951a2.46 2.46 0 0 0-.278.14 14.38 14.38 0 0 1-.555.296c-.229.117-.43.244-.447.283s-.106.07-.197.07a.41.41 0 0 0-.274.131.71.71 0 0 1-.322.185c-.118.03-.496.219-.839.421s-.682.345-.753.317-.128-.007-.128.046-.156.145-.347.204a8.02 8.02 0 0 0-.758.295 3.52 3.52 0 0 1-.717.237c-.168.028-.306.086-.306.131s-.081.081-.18.081-.205.043-.237.095-.097.07-.145.041-.112.011-.142.091-.093.122-.139.093c-.107-.067-.73.158-.73.263 0 .044-.041.054-.09.023s-.186-.004-.301.061-.24.109-.276.099-.182.029-.324.088-.299.117-.35.131c-.501.131-1.341.336-1.527.373-.127.025-.356.083-.508.128s-.694.153-1.203.24-.971.195-1.026.24-.123.059-.151.032c-.047-.048-1.365.36-1.648.511-.114.061-.597.198-.829.236-.026.004-.255.105-.509.225-.861.404-1.202.548-1.573.663s-.966.365-1.48.62c-.153.076-.355.154-.449.174s-.49.202-.879.406l-1.213.632c-.278.144-.562.314-.631.378s-.168.116-.22.116-.267.119-.479.265c-.601.413-1.183.777-1.599 1.002-.21.113-.647.398-.971.633s-.733.492-.909.57-.451.244-.612.368-.642.463-1.069.754-.882.628-1.012.749-.27.221-.31.221c-.068 0-.456.288-.795.59-.425.379-2.452 1.863-3.007 2.2-.356.217-.731.468-.833.557s-.61.401-1.13.691-.968.565-.995.611c-.081.131-1.221.749-1.382.749-.081 0-.147.032-.147.072s-.273.218-.606.396c-1.359.725-2.127 1.114-2.201 1.114s-.176.042-.985.401c-.416.185-2.365.828-3.145 1.037-.331.089-.673.2-.762.246s-.263.084-.388.084-.249.036-.277.081-.225.109-.44.144-.434.097-.488.14-.513.128-1.022.19a30.4 30.4 0 0 0-1.573.236c-3.484.659-10.362.484-12.859-.327a4.99 4.99 0 0 0-.694-.148 5.47 5.47 0 0 1-.786-.178 7.65 7.65 0 0 0-.671-.183c-.165-.034-.301-.094-.301-.133s-.207-.078-.461-.087-.576-.061-.717-.116a4.95 4.95 0 0 0-.395-.137c-.395-.105-1.945-.662-2.001-.719-.036-.036-.139-.066-.229-.066s-.523-.168-.962-.372-.822-.372-.852-.372-.288-.109-.573-.242l-.898-.419c-.209-.097-.438-.178-.509-.178s-.255-.078-.408-.172c-.228-.14-.864-.399-1.062-.433-.025-.004-.181-.08-.346-.169s-.321-.16-.347-.159-.263-.103-.527-.231-.55-.233-.635-.233-.255-.076-.376-.17c-.241-.186-.922-.519-1.277-.624-.222-.066-.326-.135-.649-.427-.091-.083-.313-.178-.493-.212s-.479-.165-.664-.292-.387-.233-.449-.237-.236-.087-.389-.184-.465-.27-.694-.383-.541-.292-.694-.398c-.392-.272-.578-.383-1.156-.692l-2.775-1.458a14.6 14.6 0 0 0-1.182-.508c-.522-.191-.567-.227-.447-.362.174-.195.9-1.758 1.156-2.49.263-.751.472-1.972.473-2.756 0-.899-.151-.776-.229.186-.186 2.302-1.428 5.303-2.038 4.923a3.35 3.35 0 0 0-.578-.242c-.216-.07-.393-.162-.393-.205s-.075-.078-.166-.078-.33-.087-.532-.193-.575-.277-.829-.38-.587-.245-.74-.315-.548-.219-.879-.33-.726-.254-.879-.318-.84-.294-1.526-.511l-1.48-.469c-.127-.041-.507-.149-.844-.241-.589-.16-.613-.178-.601-.448.011-.264-.015-.286-.432-.364-.53-.1-1.307.073-1.23.274.035.093-.037.112-.296.077-2.827-.381-7.849-.223-10.843.34-.948.178-4.118 1.059-4.302 1.195-.051.038-.238.124-.416.192s-.456.222-.618.341-.329.218-.372.218c-.341 0-1.539 1.495-1.35 1.685.133.134.305.028.305-.187 0-.722 1.976-1.873 4.487-2.614 2.897-.855 5.042-1.116 9.182-1.117l2.428-.001v.331c0 .442.631.75 1.808.885 1.151.131 1.46-.038 1.061-.582l-.192-.261h.237c.13 0 .375.058.544.129s.49.159.714.196c.367.06 2.793.811 3.599 1.115l1.018.378a22.66 22.66 0 0 1 1.156.463l1.896.832 2.081.934 1.11.513c.744.327 2.3 1.131 2.459 1.27.08.07.172.128.204.128s.444.23.915.512.893.512.938.512.202.087.35.193.269.166.269.133.065.006.145.087.205.146.278.146.132.038.132.086.121.113.27.145.293.12.321.194.108.134.178.134.622.251 1.228.559 1.154.558 1.218.558.116.039.116.087.094.113.208.145c.211.059.256.077.995.396l.925.393c.28.118.813.355 1.185.527s.72.313.774.313.291.1.527.223a13.97 13.97 0 0 0 1.076.478l1.018.415c.367.159 1.704.661 2.59.973 1.791.63 6.37 1.656 6.746 1.51.074-.029.148-.015.164.031s.237.107.492.137a18.74 18.74 0 0 1 1.064.168c.819.155 6.016.153 7.308-.004 2.182-.264 4.909-.771 6.152-1.144.356-.107.71-.206.786-.221s.264-.078.416-.14a20.53 20.53 0 0 1 1.018-.35 14.56 14.56 0 0 0 1.032-.366c.16-.071.316-.129.345-.129s.311-.126.626-.279.578-.269.584-.256a14.43 14.43 0 0 1 .121.279c.182.427.868.297 1.579-.299.404-.339.476-.556.247-.747-.151-.126-.094-.313.077-.252.059.021.211-.034.338-.122s.419-.243.648-.344.474-.253.543-.338.172-.155.227-.155c.081 0 .895-.478 2.419-1.423.726-.45 1.201-.762 1.785-1.174.37-.261.71-.475.755-.475s.097-.032.114-.072c.038-.087 1.631-1.325 1.706-1.325.029 0 .287-.209.572-.465s.571-.465.635-.465.149-.057.19-.127c.099-.169 1.153-.897 1.3-.897.064 0 .116-.031.116-.07s.239-.194.532-.346.573-.33.624-.395c.089-.113 1.406-.958 1.494-.958.023 0 .28-.161.569-.358a18.42 18.42 0 0 1 1.961-1.157c.229-.114.446-.252.481-.308s.233-.156.439-.224.375-.16.375-.203.08-.078.178-.078.233-.054.301-.12.33-.21.585-.321l1.489-.657c.564-.251 1.228-.483 1.474-.517s.513-.12.593-.192c.192-.172 1.234-.593 1.659-.67.185-.033.42-.105.522-.158s.341-.132.532-.174.503-.118.693-.168c.622-.162 2.459-.564 3.169-.693.382-.069.923-.233 1.203-.363.493-.23 1.271-.513 1.589-.577.086-.017.253-.085.37-.15s.256-.128.307-.14c.159-.038 2.299-.868 2.59-1.006l.602-.283c.178-.084.532-.272.786-.417s.535-.269.625-.273.161-.05.161-.102.084-.093.185-.093.185-.037.185-.082.125-.134.278-.197.278-.143.278-.177.187-.117.416-.185.417-.151.417-.183.104-.108.231-.167c.26-.122.259-.046-.018.805a4.94 4.94 0 0 0-.178.931c-.023.282-.076.713-.117.959-.076.447.044 1.182.193 1.182.04 0 .073.121.073.269 0 .316.217.879.305.79.033-.034.136.033.229.148.303.377 2.016.667 2.197.373.023-.038.199-.097.39-.13.362-.063.953-.321 1.053-.458.032-.043.101.04.154.186.129.352.513.777.703.777a.76.76 0 0 1 .331.112c.183.115.226.109 1.507-.206.242-.059.44-.147.44-.194s.082-.086.184-.086.233-.08.294-.177.157-.159.216-.136.222-.076.364-.219.296-.26.343-.26.12-.056.162-.124.107-.11.144-.093c.072.033.424-.239.939-.724.169-.16.329-.269.355-.243s.073-.021.105-.105.099-.153.148-.153c.12 0 .354-.242.354-.366 0-.055.035-.1.078-.1s.21-.126.37-.28.292-.259.292-.233c0 .058.322-.198.676-.538.149-.143.293-.238.319-.212.089.09.564-.257.613-.448.064-.246-.022-.328-.159-.151-.059.077-.233.201-.386.275-.28.137-1.916 1.468-1.973 1.605-.017.041-.076.074-.131.074s-.208.104-.339.231c-.354.342-1.481 1.248-1.699 1.365a1.89 1.89 0 0 0-.393.323c-.112.122-.293.221-.401.221s-.198.056-.198.124-.052.124-.116.124-.4.114-.747.254c-1.044.42-1.787.288-2.058-.366-.17-.409-.175-.389.129-.547.143-.075.49-.358.77-.631s.615-.552.744-.62.302-.268.385-.442.192-.317.244-.317.094-.107.094-.238c0-.157.037-.215.107-.172.075.047.09 0 .05-.154a.43.43 0 0 1 .101-.403c.137-.157.138-.175.011-.128-.113.041-.138.005-.109-.151.065-.342-.88-.648-1.081-.35-.028.041-.182.151-.342.244-.166.097-.325.287-.37.442-.043.149-.111.267-.151.261-.295-.042-1.107 1.765-1.125 2.504-.011.462-1.627.998-2.56.85-1.413-.225-1.856-2.14-1.088-4.708.061-.205.12-.477.131-.605l.031-.349c.006-.064.072-.116.146-.116s.167-.052.208-.116.186-.174.322-.245a3.15 3.15 0 0 0 .558-.419c.17-.16.461-.405.647-.546s.365-.34.398-.444.098-.163.146-.133.321-.169.607-.441c.876-.833 1.883-1.871 1.883-1.941 0-.036.229-.354.508-.706s.509-.678.509-.723.101-.176.225-.291c.621-.579.896-2.843.391-3.218-.291-.217-.889-.296-.954-.127zm33.778.141c-.03.048-.13.087-.224.087s-.268.104-.387.231-.249.232-.287.233c-.064.001-.186.123-.833.825-.225.244-.427.573-1.178 1.92-.103.184-.187.458-.187.61s-.041.276-.092.276-.093.115-.094.256c-.001.2-.021.225-.091.116-.078-.122-.09-.12-.091.012-.001.083-.064.204-.141.267s-.138.174-.138.244-.084.212-.185.314-.185.27-.185.372-.039.186-.087.186-.112.084-.145.187c-.05.158-.491.475-.647.465-.026-.002-.194.059-.373.134a3.82 3.82 0 0 1-.641.196c-.173.033-.335.112-.359.175s-.142.107-.261.097-.294.021-.39.071a1.34 1.34 0 0 1-.37.115c-.343.044-.748.164-.863.256-.062.048-.156.061-.209.028s-.123.007-.154.089c-.078.203.005.266.211.159.264-.136.799-.293 1.132-.332.166-.019.346-.079.399-.133s.151-.076.217-.05.26-.014.429-.087c1.18-.515 1.547-.613 1.605-.428.072.228.259.12.199-.114-.035-.134.004-.176.161-.176.278 0 .353-.093.214-.262-.101-.123-.09-.125.1-.009s.229.112.371-.062c.087-.106.208-.177.269-.156s.201-.048.312-.153.233-.171.271-.147.119-.02.182-.096.18-.139.259-.139.387-.191.683-.425.537-.394.537-.355.085-.021.189-.133.24-.204.303-.204c.158 0 .618-.543.62-.731.001-.133.013-.135.093-.014.105.162.272-.012.274-.288.001-.082.085-.224.187-.317s.185-.221.185-.286.035-.131.079-.148c.323-.127.552-1.728.311-2.18-.213-.401-1.029-.745-1.18-.497zm.772.37c.112.104.207.282.212.396a17.9 17.9 0 0 0 .047.625c.024.273-.005.451-.083.512-.066.051-.179.24-.249.419s-.225.455-.343.614-.214.315-.214.347c0 .118-1.226 1.267-1.365 1.279-.038.004-.256.15-.485.325s-.604.41-.833.521-.491.267-.582.345c-.327.281-.805.389-.805.183 0-.099.035-.159.079-.131.103.064.328-.408.299-.627-.014-.105.051-.189.171-.22.107-.028.219-.157.252-.29a2.68 2.68 0 0 1 .184-.477c.068-.132.124-.312.124-.402s.041-.163.091-.163.239-.319.421-.709c.38-.818.728-1.364.813-1.278.033.033.088-.02.122-.117.146-.406 1.407-1.32 1.844-1.336.054-.002.189.082.3.186zm-57.524.047c0 .316.734 1.271 1.931 2.511 1.246 1.29 1.746 1.856 2.378 2.689.179.235.364.427.413.427s.088.063.088.14.083.14.19.14c.262 0 .753.268.687.375s.755.011 1.02-.121c.485-.242.646-.66.419-1.087-.239-.448-1.394-.233-2.097.39-.195.173-.198.172-.408-.18-.29-.488-1.204-1.62-1.941-2.403-1.503-1.598-2.16-2.395-2.318-2.813-.09-.239-.362-.29-.362-.068zm-2.146 1.136c-.485.724-1.366 2.268-1.873 3.281-.54 1.08-1.643 3.072-1.731 3.127-.043.027-.079.124-.079.215 0 .244-.296.485-.465.378-.618-.393-2.173.397-1.605.815.479.353 1.977-.206 1.977-.738 0-.095.063-.197.139-.226s.139-.109.139-.176.103-.246.229-.396.272-.374.325-.496.199-.39.325-.595a49.51 49.51 0 0 0 .9-1.629l.765-1.407c.051-.082.205-.358.342-.613s.48-.812.763-1.237c.542-.814.591-.931.392-.931-.067 0-.312.283-.543.628zm-39.112.158c-.11.227-.24.699-.291 1.047s-.137.874-.191 1.166c-.116.623-.113.677.039.677.116 0 .136-.084.387-1.585.077-.462.204-1.023.282-1.245.228-.651.078-.692-.225-.061zm-1.812.468c-.089.476.003 2.271.122 2.391.224.226.413.015.257-.288-.104-.202-.142-.567-.142-1.351 0-1.055-.113-1.415-.237-.752zm-19.221 1.019c.312.213.679.697.679.894 0 .326-1.153-.309-1.336-.736-.158-.367.219-.458.657-.159zm21.956.502c-.405.423-.907 1.277-.808 1.377.025.025.269-.26.542-.633a17.57 17.57 0 0 1 .659-.859c.167-.185.211-.331.099-.331-.035 0-.256.201-.492.447zm-3.736-.277c-.253.408.211 2.299.702 2.862.47.539.632.168.179-.413-.305-.391-.559-1.103-.704-1.968-.065-.39-.129-.561-.178-.481zm-18.689.55c-.055.055-.333-.089-.333-.172 0-.046.081-.033.181.03s.168.127.152.143zm82.28-.101c0 .214-.466 1.15-.572 1.15-.048 0-.066.035-.04.077s-.012.19-.083.329c-.085.165-.103.324-.053.459.074.196.085.19.218-.119.231-.537.343-.771.567-1.188.128-.237.196-.49.17-.628-.049-.258-.207-.318-.207-.078zm-82.266.428c.404.215.521.443.229.443-.21 0-.546-.236-.671-.47s-.039-.229.442.028zm50.783 1.129c-.681.719-1.571 1.098-1.277.544.128-.241.637-.672.794-.672.067 0 .237-.061.379-.135.388-.203.434-.086.104.262zm81.867-.177c-.083.126-.15.273-.15.325s-.083.148-.185.212c-.112.071-.185.217-.185.373 0 .141-.038.257-.084.257s-.062-.084-.035-.186c.075-.289-.087-.214-.36.166-.136.19-.416.557-.623.817-.391.491-.616 1.129-.369 1.046.071-.024.171-.166.221-.315s.115-.293.143-.318c.179-.16.443-.638.387-.7-.036-.041-.019-.047.039-.014s.179-.052.27-.191c.154-.236.168-.241.235-.069.109.281.106.502-.005.325-.048-.075-.102-.117-.122-.093-.145.179-.714 1.312-.714 1.422 0 .076-.058.16-.127.187s-.22.23-.334.452-.304.571-.424.776c-.51.869-.596 1.08-.596 1.465 0 .501.386 1.113.734 1.162.553.078.995.079 1.093.002.063-.05.197-.069.297-.043s.228-.008.284-.075.182-.108.279-.089c.214.041.29-.056.181-.234-.063-.103-.127-.108-.294-.027-1.627.786-2.885-.336-1.888-1.683.119-.16.197-.344.174-.408s.001-.116.055-.116.073-.064.042-.143c-.034-.091-.008-.134.073-.116.071.015.127-.048.127-.144s.082-.23.18-.303c.128-.095.141-.133.046-.135-.08-.002-.032-.079.118-.192a.88.88 0 0 0 .312-.515c.042-.228.099-.311.19-.276s.148-.037.183-.216c.046-.231.105-.273.448-.32.217-.03.66-.137.985-.239s.747-.21.938-.24.346-.101.346-.157c0-.066-.12-.079-.346-.038-.191.035-.451.077-.579.094-.582.077-.98.172-1.086.259-.081.067-.131.05-.174-.061-.068-.18.101-.61.241-.61.052 0 .094-.116.094-.258 0-.157.109-.378.278-.564.335-.369.348-.48.057-.48-.133 0-.281.092-.37.23zM60.135 42.048c-.656.663-.892.958-.821 1.029.134.135 1.791-1.602 1.791-1.879 0-.129-.008-.122-.97.849zm29.926-.743c-.103.194-.815.608-.899.523-.163-.164.476-.708.833-.708.136 0 .148.032.066.185zm17.744.019c.456.458-.516 1.09-1.051.682-.099-.075-.273-.138-.388-.14-.501-.007.145-.422.881-.566l.396-.078c.028-.006.101.04.162.101zm-53.486.447c-.093.471.178 1.566.345 1.39.061-.064-.157-1.669-.227-1.669-.035 0-.088.126-.118.279zm-.708.454c0 .742.358 1.408.756 1.408.232 0 .213-.07-.101-.365-.2-.188-.298-.402-.382-.831-.141-.722-.273-.824-.273-.212zm1.309.116c-.16.423-.168 1.059-.014 1.059.1 0 .158-.155.207-.555.074-.598-.043-.903-.194-.504zm125.784.007c.086.087.136.087.222 0s.062-.112-.111-.112-.197.025-.111.112zm-124.595.304c0 .698.412 1.539.754 1.539.228 0 .215-.069-.1-.537a3.32 3.32 0 0 1-.386-.861c-.137-.537-.268-.606-.268-.141zm116.75-.23c0 .051.062.093.139.093s.139-.042.139-.093-.063-.093-.139-.093-.139.042-.139.093zm8.325-.093c-.073.151-.055.466.022.389.049-.049.069-.167.045-.262s-.055-.152-.067-.126zm-28.307.46c0 .099-.04.205-.089.236-.101.063-.024.328.095.328.136 0 .264-.333.209-.543-.065-.25-.215-.265-.215-.021zm-97.524.458c-.192.419-.248.87-.115.915.124.042.297-.33.372-.8s-.064-.537-.257-.115zm125.217-.22c.077.077.184.14.238.14s.1-.063.1-.14c0-.088-.089-.14-.238-.14-.212 0-.223.016-.1.14zm-120.899.747c-.452.331-.851.603-.887.603s-.089.063-.118.14c-.157.412 1.304-.471 1.738-1.05.288-.384.11-.31-.733.308zm92.824-.375l-.023.256c-.007.064-.071.116-.143.116s-.171.126-.221.279-.168.39-.262.526-.172.288-.172.338-.058.139-.128.197-.151.226-.18.372-.119.333-.201.414c-.357.36-.363 2.273-.008 2.605.324.302 1.285.522 1.407.322.026-.042.088-.052.138-.021.121.076 1.377-.156 1.377-.254 0-.043.059-.078.13-.078s.29-.079.486-.176l.816-.396c.57-.272.696-.387.696-.632s-.109-.245-.324-.007c-.092.102-.21.186-.261.186s-.171.07-.265.156c-.677.616-1.53-.25-.908-.922.102-.11.185-.271.185-.358s.104-.227.232-.31.231-.21.231-.281.121-.171.269-.223.297-.185.332-.295c.08-.254-.027-.371-.169-.186-.06.078-.225.216-.368.308s-.286.238-.319.324a1.45 1.45 0 0 1-.25.362c-.339.368-.422.485-.514.73-.159.42-.087 1.133.102 1.015.045-.028.056.017.024.101-.037.098-.012.145.071.134.587-.083.397.12-.355.378-.961.33-2.234.324-2.544-.012-.326-.353-.236-1.769.155-2.44.129-.223.235-.491.235-.596s.062-.215.138-.244.206-.302.29-.607c.1-.36.194-.538.268-.51.124.048.354-.49.269-.629-.08-.131-.223-.096-.236.057zm27.066.172c-.451.214-1.336 1.108-1.336 1.35 0 .059-.039.106-.085.106s-.169.136-.272.303-.262.386-.354.489c-.183.201-.357.444-.739 1.024-.467.711-1.057.937-1.349.516-.3-.43.264-1.84 1.035-2.588.71-.689.597-.731-.529-.197a2.82 2.82 0 0 1-1.108.297c-.497.02-.529.036-.546.266-.01.135-.105.415-.211.623-.117.232-.146.36-.075.331.132-.054.44-.634.44-.829 0-.087.168-.15.516-.194.283-.036.697-.157.918-.27l.402-.205-.301.379c-.931 1.175-1.211 2.349-.649 2.72.515.339 1.215-.083 1.943-1.17 1.312-1.959 1.795-2.521 2.416-2.807.499-.23.516-.228.449.077l-.097.489c-.058.319-.38.937-.451.865-.032-.032-.058.032-.058.143 0 .123-.058.202-.149.202s-.129.052-.099.129c.027.071-.044.27-.157.442s-.203.376-.201.452c.005.162.328.253.328.093 0-.059.132-.303.294-.542l.463-.686c.092-.139.168-.328.168-.421 0-.25.586-1.048.77-1.048.049 0 .14-.07.203-.156.199-.274.361.16.185.498a24.33 24.33 0 0 0-.423.915c-.158.358-.339.714-.402.791-.149.18-.35.87-.398 1.364-.056.579.393.786 1.106.509.139-.054.563-.118.942-.141s.769-.086.868-.14c.145-.078.229-.052.424.13.388.362 1.536.186 1.536-.235 0-.223.025-.223-.441.003-.694.337-1.235.1-.743-.325.18-.156.217-.238.14-.315-.057-.057-.068-.104-.025-.104s.128.069.189.154c.103.142.126.14.292-.023.099-.097.365-.279.592-.403s.446-.281.486-.349.113-.123.161-.123c.137 0 .459-.308.459-.44 0-.065.04-.119.09-.119.112 0 .02-.272-.164-.489-.307-.36-.7-.142-1.799.996-.394.408-.717.769-.717.802s-.167.125-.37.206c-.277.109-.373.201-.381.363-.008.168-.02.179-.054.047-.03-.117-.092-.149-.198-.105-.084.036-.258.073-.385.084s-.314.064-.416.119c-1.202.65-1.558-.102-.738-1.56.95-1.69 1.022-2.603.184-2.324-.177.059-.346.146-.375.193-.094.153-.214.092-.244-.123-.042-.294-.388-.308-.96-.037zm-126.042-.057c0 .21.844 1.133 1.041 1.139.18.005.032-.274-.324-.612-.519-.493-.717-.639-.717-.527zm94.849.13c-.057.058-.282.121-.499.141s-.418.067-.446.104-.113.07-.19.071c-.392.008-1.212.17-1.26.249-.091.148.123.305.262.192.066-.054.348-.128.628-.165s.555-.105.612-.151.264-.097.462-.115.423-.056.499-.087a1.81 1.81 0 0 1 .316-.084c.098-.016.195-.081.216-.145.049-.149-.453-.158-.6-.011zm19.935.493c-.265.335-.32.56-.162.658.051.032.092-.008.092-.088s.049-.145.108-.145.08-.028.046-.062.005-.136.086-.226.133-.23.115-.312c-.023-.109-.098-.063-.285.174zm20.584.03c-.42.573-1.152 1.327-1.289 1.327-.07 0-.152.064-.182.142s-.232.223-.448.323-.416.263-.442.364c-.029.111-.168.215-.352.263-.301.079-.73.525-.615.64.033.033.207-.069.387-.228s.385-.267.455-.239c.081.031.176-.057.254-.236.072-.162.196-.285.288-.285s.163-.044.163-.098.125-.142.277-.195.278-.135.278-.181.06-.084.133-.084.208-.126.298-.279.209-.279.263-.279.257-.172.449-.382.359-.367.372-.349c1.168 1.619.004 4.253-1.473 3.335-.181-.113-.353-.181-.382-.152-.095.095.505.62.708.62.378 0 1.009-.207 1.167-.382.087-.097.207-.177.266-.177.131 0 .391-.531.501-1.024.078-.348.05-.545-.262-1.861-.239-1.009-.412-1.132-.814-.582zM55.74 44.156c0 .084-.089.297-.198.475-.232.377-.081.605.219.331.178-.162.238-.958.072-.958-.051 0-.093.068-.093.152zm89.413.123c-.153.04-.694.168-1.203.284s-1.107.268-1.33.337-.44.103-.483.076-.205.018-.361.099-.32.124-.365.096-.196-.007-.336.046c-.25.095-.424.13-1.221.244-.217.031-.417.093-.444.137s-.166.081-.307.081-.288.031-.326.07-.097.073-.131.077c-.311.036-.767.17-.808.236-.109.177.066.264.266.133a1.72 1.72 0 0 1 .573-.189 12.58 12.58 0 0 0 .509-.084l.486-.1c.19-.039.346-.099.346-.134 0-.056.354-.115.741-.124.076-.002.19-.045.254-.095s.116-.055.117-.011.046.018.099-.058c.07-.099.112-.108.144-.029s.154.063.447-.063c.221-.095.422-.153.447-.128s.206.002.402-.051.453-.111.572-.129.253-.093.299-.166c.068-.108.084-.109.085-.005.001.09.063.107.21.06a2.36 2.36 0 0 1 .397-.087.89.89 0 0 0 .317-.099c.07-.043.234-.091.365-.105a7.15 7.15 0 0 0 .47-.07 3.88 3.88 0 0 1 .347-.052c.064-.004.116-.071.116-.147 0-.152-.238-.169-.694-.051zm11.458.19c-.11.044-.227.126-.26.18s-.142.1-.241.1c-.118 0-.18.064-.18.186 0 .25.103.235.574-.082.439-.296.954-.308 1.039-.024.138.464.119.648-.095.898-.122.143-.222.317-.222.386s-.051.115-.114.102-.127.069-.144.181c-.019.121-.08.185-.151.158-.065-.025-.19.062-.276.194s-.2.213-.255.179c-.085-.053-.029.305.065.413.051.058.306-.123.306-.216 0-.05.044-.106.098-.124.062-.021.085.101.064.33-.053.544.882 1.311 1.04.854.021-.059.07-.061.139-.004.135.113.475-.119.387-.263-.034-.055-.106-.074-.159-.04-.703.437-1.462-.247-.972-.876a.15.15 0 0 0-.014-.228c-.134-.135-.138-.257-.009-.257.054 0 .072.042.041.093s-.02.093.026.093c.086 0 .298-.404.298-.569 0-.053.066-.162.147-.244.097-.097.129-.238.095-.409-.028-.143-.011-.285.038-.316s.09.031.09.136c0 .199.133.258.229.102.08-.131-.163-.479-.299-.427-.072.028-.115-.038-.115-.176 0-.341-.677-.533-1.17-.333zm5.14.16c-.077.204-.112.227-.184.116-.077-.117-.103-.113-.185.026-.052.09-.164.163-.248.163-.107 0-.123.029-.055.098.104.105.772-.156.772-.301 0-.042.063-.076.139-.076a.14.14 0 0 0 .139-.14c0-.237-.277-.154-.378.113zm.47-.166c0 .055.037.1.082.1.181 0 .17.566-.013.664-.115.062-.162.16-.132.274.025.098.003.178-.05.178-.127 0-.442.369-.442.516 0 .064-.125.25-.277.415s-.278.37-.278.457a.44.44 0 0 1-.109.268c-.147.147-.068.211.179.146a.42.42 0 0 0 .263-.252c.034-.11.09-.22.124-.246a4.76 4.76 0 0 0 .525-.861c.007-.038.018-.112.024-.163s.095-.093.197-.093c.122 0 .185-.062.185-.183s.045-.166.129-.133c.071.027.185-.03.254-.128s.176-.195.238-.216.082-.087.039-.158c-.099-.16-.338-.057-.451.195-.073.163-.09.1-.081-.308.009-.464-.009-.515-.198-.542-.114-.016-.208.015-.208.07zm-67.533.099c.088.012-.293.204-.557.28-.179.052-.282.041-.317-.032-.038-.08-.065-.078-.105.008-.03.064-.137.116-.239.116-.282 0-.152-.217.207-.346.264-.094.477-.1 1.011-.027zm68.851.051c-.165.07-.3.192-.3.271 0 .196.09.177.413-.088.336-.276.289-.353-.113-.183zm.44.016c0 .066.039.12.086.12.105 0 .038.421-.11.689-.059.107-.097.247-.084.311s-.03.116-.096.116c-.076 0-.129.147-.144.396-.013.218-.072.489-.131.604-.085.167-.078.241.038.372a.9.9 0 0 1 .18.35c.022.111.098.176.188.16.083-.014.178.017.21.07.167.272 1.066.014 1.066-.306 0-.133-.034-.134-.321-.013-.986.415-1.328-.573-.662-1.909.276-.552.252-1.117-.046-1.095-.096.007-.174.067-.174.133zm8.55.024c-.256.104-.779.637-.779.793 0 .068-.125.23-.278.359s-.277.26-.277.291-.081.17-.18.309c-.311.436-.269 1.409.055 1.284.074-.029.111-.013.082.033-.054.088.056.134.575.239.381.077.396-.082.023-.248-.262-.116-.387-.357-.185-.357.051 0 .092-.065.092-.145s.039-.121.085-.092.151-.013.232-.094.146-.127.146-.103c0 .191.567-.546.608-.79.046-.274.038-.289-.061-.125-.159.262-1.46 1.492-1.512 1.428-.102-.124-.124-.623-.026-.585.066.025.203-.156.332-.439.121-.266.334-.591.474-.723a3.18 3.18 0 0 0 .414-.495c.089-.14.2-.231.248-.202s.15.001.228-.065c.183-.153.303.016.241.341-.024.131.001.227.061.227.175 0 .114.162-.082.213s-.262.345-.08.345c.405 0 .493-.997.114-1.297-.27-.213-.276-.214-.55-.103zm-4.86.301c-.06.113-.269.35-.465.527-.345.311-.463.571-.259.571.054 0 .072-.042.041-.093s.007-.093.087-.093.144-.039.144-.087.073-.112.162-.143c.16-.056.578-.634.578-.801 0-.161-.178-.088-.288.118zm-108.576.394c-.484.247-.712.467-.628.604.044.071.146.044.326-.084.144-.103.291-.188.326-.188.114 0 .601-.382.601-.472 0-.127-.182-.087-.626.14zm101.278.34c-.28.311-.603.653-.717.761s-.209.303-.21.435c-.001.178-.022.205-.084.107-.065-.104-.121-.069-.261.163-.098.162-.212.263-.254.225s-.049.006-.017.097c.044.124.018.16-.101.14-.106-.018-.17.043-.19.182-.016.115.01.209.058.209.14 0 .798-.643.729-.712-.034-.035.031-.109.146-.166.121-.061.219-.207.236-.352.019-.164.071-.232.153-.201.071.027.15-.032.183-.136s.119-.208.194-.236.135-.116.135-.195.059-.142.13-.142c.137 0 .61-.511.61-.659 0-.216-.273-.039-.74.48zm25.484-.37c-.078.247-.331.549-.46.549-.054 0-.158.084-.231.186s-.201.186-.284.186-.246.084-.364.186c-.192.168-.462.252-.462.143 0-.024.359-.359.797-.745.816-.718 1.119-.87 1.004-.505zm-54.104.596c-.146.077-.318.139-.383.139-.115 0-.271.269-.199.343.049.049.554-.177.627-.28.031-.044.167-.087.301-.095s.243-.04.243-.071c0-.139.487.055.609.242.212.325.167 1.444-.057 1.444-.609 0-2.68 1.509-2.68 1.952 0 .126.081.203.255.241a5.68 5.68 0 0 1 .382.097c.304.096.756-.096 1.204-.513.259-.242.472-.42.472-.397 0 .245.608-.709.689-1.082.037-.166.124-.299.197-.299s.132-.038.132-.084.073-.065.162-.042.251-.041.36-.143.221-.163.248-.135c.044.044.503-.07.895-.223.076-.03.191-.046.254-.035s.116-.02.116-.068.156-.112.347-.143c.826-.134.948-.18.948-.353 0-.055-.091-.076-.208-.046l-.763.184c-.306.073-.659.176-.787.23s-.47.168-.763.254-.563.205-.602.265c-.094.147-.485.151-.485.004 0-.065.042-.144.093-.176.137-.086.112-.67-.043-.97-.203-.396-1.026-.522-1.564-.239zm34.408.564c-.413.384-.522.536-.442.616s.121.069.165-.048c.033-.085.115-.155.182-.155s.148-.08.178-.177.159-.203.284-.234c.166-.042.228-.121.228-.288 0-.288.051-.313-.595.287zm-28.731-.335c0 .05-.056.069-.124.042-.158-.061-.388.198-.251.283.121.075.58-.143.63-.299.021-.064-.028-.116-.108-.116s-.147.041-.147.09zm-12.785.799c.058.598-.662 1.64-1.638 2.369-.171.128-.395.306-.498.396s-.207.163-.232.163c-.09 0 .064-.9.2-1.168a11.37 11.37 0 0 0 .278-.602c.077-.18.246-.428.376-.551s.237-.32.237-.438c0-.131.045-.197.116-.172.064.023.22-.041.347-.143.361-.289.779-.213.814.147zm53.675-.092c0 .08.042.119.093.087s.092-.097.092-.145-.041-.088-.092-.088-.093.065-.093.145zm-5.273.189c-.127.126-.408.316-.624.422s-.394.228-.394.271c0 .166.204.196.36.053.09-.082.204-.149.254-.149.13 0 .774-.611.774-.734 0-.158-.115-.116-.37.137zm5.923-.103c-.073.088-.08.142-.019.142.112 0 .242-.177.178-.241-.023-.023-.095.021-.159.099zm-13.58.25c-.138.14-.15.357-.019.357.112 0 .215-.229.167-.373-.022-.067-.071-.061-.148.016zm19.767.042c-.107.13-.1.146.051.116.096-.019.191-.086.212-.15.055-.166-.116-.144-.263.034zM16.33 47.86c0 .081.066.147.146.147.163 0 .135-.2-.037-.258-.06-.02-.11.029-.11.111zm116.486.281c-.452.848-1.186 1.461-1.793 1.495-.435.025-.51-.074-.261-.343.104-.113.189-.252.189-.31s.136-.175.301-.261c.347-.18.65-.367.717-.442.06-.066.857-.45.948-.456.039-.003-.007.14-.101.316zM32.482 49.788c-.152.343-.22.605-.169.656.11.111.228-.051.421-.578.309-.844.114-.904-.252-.078zm-1.568 1.154c-.192.881-.198 1.473-.014 1.626.076.064.142.1.145.081s.017-.37.03-.779.058-.944.099-1.187c.124-.73-.09-.516-.26.259zm1.674.1c-.369.547-.417.69-.231.686.12-.003.717-.924.717-1.105 0-.209-.148-.081-.486.419zm-2.496.182c-.147.148.232 2.196.438 2.369.248.207.308.006.135-.452-.094-.248-.224-.793-.289-1.21-.112-.715-.159-.832-.284-.707zm2.202 1.926c-.094.166-.255.37-.357.453-.199.162-.146.387.072.303.14-.054.602-.79.602-.958 0-.191-.146-.098-.317.203zm-2.92.559c.002.563.312 1.97.495 2.252.299.46.462.196.198-.319-.158-.307-.509-1.755-.509-2.099 0-.126-.042-.229-.093-.229s-.092.178-.091.396zm-9.808-.21c0 .107-.222.107-.555 0-.197-.063-.172-.076.162-.084.216-.005.393.033.393.084zm-.905.476c.328.168.526.403.425.504-.229.231-2.388-.389-2.388-.685 0-.2 1.487-.063 1.963.181zm13.215.944c-.415.587-.676.871-.908.992-.27.14-.267.288.006.288.242 0 .545-.302.973-.97.458-.716.4-.974-.07-.31zm49.628.512c.064.155.251.895.365 1.443.029.141.089.256.133.256.253 0 .101-1.146-.218-1.635-.171-.262-.383-.311-.281-.064zm-1.751.382c-.027.044.102.18.286.303s.491.486.683.809c.359.604.552.637.363.063-.251-.765-1.115-1.527-1.332-1.174zm2.718.218c-.062.577-.033 1.934.042 1.909.246-.083.287-1.735.047-1.884-.047-.029-.087-.041-.089-.025zm-.79 1.774c.236 1.336 1.657 3.608 2.256 3.608.213 0 .105-.328-.157-.478-.421-.241-.971-1.062-1.488-2.222-.532-1.194-.708-1.455-.611-.908zm-2.167.059c0 .288 1.399.968 1.592.773.133-.134.019-.399-.145-.336-.073.028-.372-.077-.664-.234-.538-.289-.783-.353-.783-.203zm3.791.5c-.001.269-.038.642-.081.83-.094.406-.029.844.118.795.057-.019.109-.122.114-.228a12.08 12.08 0 0 1 .072-.66c.068-.514-.013-1.226-.14-1.226-.044 0-.082.22-.083.489zm-3.236.9c0 .154.87.838 1.141.898.44.097.501-.106.095-.318-.197-.103-.501-.294-.677-.426-.324-.244-.56-.309-.56-.154zm1.434 2.306c-.251.063-.329.149-.251.275.097.156.806.02.806-.155 0-.145-.244-.198-.555-.12zm-3.192 3.922c0 .253-1.17.856-1.336.688-.108-.109-.041-.208.249-.367.605-.332 1.087-.475 1.087-.321z" fill="#c47768"/></svg>