<svg xmlns="http://www.w3.org/2000/svg" width="1432" height="500" fill="none" fill-rule="evenodd" xmlns:v="https://vecta.io/nano"><path d="M68.335 104.29v99.203h21.492 21.492V104.29 5.086H89.827 68.335v99.204zM1331.78 254.197V500h21.49 21.49V254.197 8.393h-21.49-21.49v245.804zm-843.929 4.98c-11.321 2.051-21.386 9.918-26.597 20.792-1.531 3.195-1.573 3.621-.361 3.621 3.721 0 60.188-8.132 63.3-9.116.821-.259.777-.355-1.296-2.823-7.285-8.676-16.944-13.109-28.35-13.012-2.146.018-5.159.26-6.696.538zm327.197.219c-18.166 1.595-35.651 6.844-50.481 15.156l-4.191 2.349 3.089.2 14.661.779c39.329 1.964 80.687 7.49 132.443 17.695l13.025 2.61c.891.217.887.2-.289-1.401-8.251-11.225-23.979-21.778-43.186-28.977-5.422-2.032-7.062-2.365-23.457-4.767-25.649-3.757-32.992-4.4-41.614-3.644zm-165.324 1.093c-14.56 2.14-20.545 3.282-22.16 4.228-4.205 2.465-10.349 9.617-12.959 15.087-1.373 2.877-3.503 9.925-3.116 10.311.089.09 5.174-.759 11.3-1.887 20.188-3.716 32.97-5.653 48.993-7.426l9.288-1.099c.235-.168-1.534-3.335-3.064-5.482-1.817-2.551-7.319-7.993-9.729-9.623-2.181-1.475-5.943-3.356-8.414-4.206-2.405-.828-3.942-.813-10.139.097zm-621.322 1.595c-7.096 1.306-12.727 4.099-17.544 8.702-1.829 1.747-3.599 3.649-3.933 4.225l-.607 1.047 10.71.095c42.97.382 93.451 5.956 150.982 16.672 5.417 1.009 9.997 1.783 10.177 1.719.514-.18-4.183-6.266-7.643-9.902-11.047-11.61-26.107-18.911-45.496-22.056-5.06-.821-5.402-.827-49.549-.908-35.588-.064-44.981.017-47.097.406zm959.502.163c-7.236 1.55-14.211 5.569-19.135 11.025-1.457 1.615-2.014 2.476-1.709 2.641.249.134 3.512.838 7.25 1.563 39.13 7.593 85.94 12.613 134.42 14.419l6.75.251-.25-2.165c-.83-7.134-4.2-14.124-9.22-19.142l-2.31-2.313h-2.93c-11.39 0-50.19-3.108-69.76-5.586-8.75-1.108-9.75-1.16-24.55-1.259-13.787-.092-15.767-.031-18.556.566zm252.206.257c-14.41 2.447-38.79 4.875-59.88 5.965l-5.88.304-3.86 1.884c-9.19 4.492-16.45 9.545-23.27 16.212-2.39 2.339-4.52 4.57-4.73 4.956-.37.689-.1.699 12.99.459 39.59-.725 73.94-3.971 103.92-9.817 6.13-1.195 19.99-4.357 23.87-5.443l2.37-.665-1.82-1.332c-5.81-4.245-19.89-9.983-30.87-12.578-4.6-1.086-6.15-1.079-12.84.055zm-951.527-.324c-2.43.604-12.44 4.017-15.492 5.283-6.683 2.771-20.696 10.214-20.696 10.991 0 .116 1.117.408 2.48.65 19.763 3.51 29.824 5.01 44.73 6.67 10.516 1.171 23.806 2.26 37.106 3.038 9.144.535 55.492.575 60.972.052l3.293-.314-3.49-2.806c-8.012-6.441-18.219-12.662-27.556-16.796l-4.988-2.21-13.554-.402c-19.5-.58-37.28-1.829-52.596-3.697-5.779-.705-8.691-.836-10.209-.459zm236.046 20.526c-13.324 2.447-63.104 9.702-66.567 9.702-.163 0-.297 5.223-.297 11.606v11.606l1.377-.212c.758-.117 5.428-.716 10.379-1.331 16.087-1.998 36.218-4.966 55.016-8.111l7.072-1.183v-6.487c0-6.79-.263-9.103-1.54-13.512-.883-3.05-.643-2.959-5.44-2.078zm761.411 1.109c-23.74 7.444-56.8 12.901-93.13 15.375-15.16 1.032-22.83 1.33-40.11 1.556l-17.14.224-1.66 2.976a80.48 80.48 0 0 0-3.13 6.466c-1.55 3.678-4.09 11.67-4.09 12.881 0 .691.35.713 11.66.707 59.55-.033 110.57-5.74 148.88-16.654l9.19-2.736 2.02-.695.11-1.844c.15-2.505-1.2-8.865-2.57-12.168-1.07-2.56-4.26-7.83-4.69-7.741-.11.022-2.51.766-5.34 1.653zm-324.518 1.487c-1.707 4.703-1.977 6.4-2.171 13.628-.105 3.902-.048 7.073.128 7.073s4.721.904 10.1 2.008c34.721 7.126 81.621 12.685 124.411 14.744l5.23.252 2.05-1.362c5.55-3.68 10.52-10.489 12.61-17.242 1.27-4.119 1.83-3.766-6.48-4.054-46.71-1.622-95.67-7.065-133.273-14.818l-10.873-2.21c-.872-.151-1.019.017-1.732 1.981zM1.346 286.621C.2 290.688.001 292.679 0 300.05v7.606l7.807-.125c9.037-.146 29.388.465 41.607 1.248 37.583 2.409 76.524 7.625 124.912 16.73l13.226 2.55c2.707.623 2.851.556 2.574-1.205-.565-3.59-1.708-8.823-2.592-11.876-.831-2.867-3.644-10.739-3.945-11.04-.313-.313-22.174-4.292-38.103-6.935-49.205-8.164-93.435-12.301-131.59-12.308l-12.006-.003-.544 1.929zm238.177 1.457c-1.912 1.661-4.805 4.347-6.428 5.971-2.983 2.984-9.053 9.807-8.879 9.982.163.162 21.78 4.795 28.731 6.158 26.902 5.273 54.641 8.566 85.968 10.205 10.966.574 47.325.576 58.598.003 14.377-.73 27.36-1.613 27.653-1.879.612-.557-9.113-14.268-14.176-19.986l-1.572-1.775-6.595.43c-9.967.651-48.174.903-59.889.394-32.149-1.394-60.349-4.761-89.717-10.714l-9.566-1.807c-.359 0-2.216 1.358-4.128 3.018zm504.252.873c-5.262 4.501-10.711 9.961-14.91 14.945-2.004 2.377-3.643 4.409-3.643 4.514s4.34.084 9.644-.047c9.563-.237 30.924.23 43.995.962 33.883 1.897 68.959 6.218 108.93 13.419 8.517 1.534 38.196 7.33 39.534 7.72.768.224 2.211-3.039 3.088-6.979 1.18-5.305.062-15.247-1.803-16.037-1.726-.731-36.352-7.233-53.494-10.045-43.502-7.137-90.494-11.633-121.238-11.6l-6.429.007-3.674 3.141zm-69.069-.001c-16.804 1.762-33.276 4.127-51.25 7.358l-11.848 2.205c-.595.177-.643 1.058-.643 11.74 0 6.352.091 11.549.201 11.549s6.031-1.065 13.157-2.366c20.147-3.68 40.249-6.593 54.608-7.916 2.526-.232 4.965-.498 5.419-.589l.827-.166-.017-8.903c-.018-9.412-.464-13.619-1.455-13.734-.301-.035-4.351.335-8.999.822zm-458.875 26.862c-2.532 4.034-8.791 15.866-8.53 16.126.21.211 43.671 9.413 50.054 10.598 8.674 1.611 20.382 3.515 21.609 3.515.717 0 1.313-.549 2.69-2.48 4.971-6.967 12.284-12.821 20.026-16.032l2.846-1.18-9.441-1.175c-19.665-2.446-32.56-4.728-58.664-10.38l-17.277-3.657c-.212 0-1.702 2.099-3.313 4.665zm1078.469-3.149c-15.52 5.436-36.96 10.396-58.57 13.55-2.82.41-5.19.812-5.27.892s1.15.429 2.74.777c1.58.347 6.33 1.772 10.56 3.165s9.77 2.976 12.31 3.517c4.12.877 5.41.984 11.97.991 7.02.007 7.47-.036 10.28-.985 4.21-1.422 7.28-3.345 10.68-6.706 4.37-4.305 7.01-8.484 8.57-13.541.43-1.386.78-2.584.78-2.664 0-.307-1.03-.051-4.05 1.004zm-765.997.918c-10.998 2.069-41.526 6.686-58.986 8.922l-11.404 1.6c-.087.087-.115 5.283-.062 11.545l.097 11.387 12.491-1.578c14.956-1.889 27.795-3.754 46.934-6.821l14.236-2.28V324.67c0-6.427-.124-11.668-.275-11.647s-1.516.273-3.031.558zm431.031 12.155l.097 11.651 1.286.286c33.735 7.511 83.273 13.899 124.723 16.085l9.19.547 1.84.159-1.29-1.091c-1.82-1.558-7.02-4.147-10.53-5.248-4.93-1.545-7.79-1.706-30.33-1.706h-21.23v-9.553-9.553l3.77-.047 3.76-.047-2.57-.333-13.04-1.619c-19.6-2.406-39.098-5.639-56.448-9.358l-8.914-1.823c-.296 0-.384 3.25-.314 11.65zM.001 327.68v11.39l11.848.004c17.035.006 35.969.852 53.547 2.395l7.072.536 1.01.005v-7.532-7.532h16.649c19.426 0 19.19-.033 22.598 3.123 3.086 2.857 4.255 5.553 4.225 9.736-.016 2.099-.261 3.814-.747 5.23l-.725 2.108 1.135.19c.625.105 5.103.78 9.952 1.5 15.233 2.26 38.054 6.226 55.06 9.568 3.611.709 6.77 1.211 7.02 1.115.478-.183.614-.705 1.491-5.707.693-3.961 1.324-14.18.974-15.809l-.269-1.254-4.4-.866c-47.937-9.427-94.231-15.837-132.067-18.287-15.417-.998-24.532-1.298-39.586-1.3L.001 316.29v11.39zm724.568-10.409l-5.614.141-1.352 2.103c-2.991 4.65-10.582 20.715-9.985 21.131.084.059 2.302-.009 4.929-.152 17.348-.94 49.827-.725 68.088.451l6 .386 3.736-3.623c6.877-6.667 14.159-10.52 23.871-12.631 4.402-.956 13.83-1.328 18.806-.741 10.716 1.264 22.826 5.217 33.802 11.033l9.735 5.169c6.323 3.361 12.19 5.51 17.635 6.46 4.132.72 10.677.529 14.144-.414 4.644-1.263 9.748-4.261 12.986-7.629l1.229-1.278-1.78-.38c-.979-.21-6.079-1.212-11.332-2.229-51.277-9.921-93.212-15.195-137.587-17.304-8.612-.409-38.324-.719-47.311-.493zm-43.984 2.586c-18.221 1.689-40.519 4.869-62.089 8.854l-7.347 1.358-.097 11.706-.097 11.707.831-.203c3.524-.859 28.858-5.292 37.938-6.638 9.294-1.378 33.18-4.264 35.29-4.264.09 0 .163-5.125.163-11.39v-11.39l-1.561.062a69.52 69.52 0 0 0-3.031.198zm-260.478 7.668c-18.098 1.471-27.782 1.8-53.167 1.804l-25.246.005 1.876 1.102c2.908 1.709 7.989 5.736 10.252 8.125 2.94 3.105 6.176 7.597 8.003 11.108l1.581 3.04 11.267-.222c20.145-.396 37.224-1.214 53.884-2.58 8.944-.733 9.736-.855 9.736-1.497 0-1.655-3.816-12.133-6.513-17.882l-1.68-3.582-2.057.05c-1.132.028-4.703.266-7.936.529zm770.223 3.294c-13.07.939-23.83 1.311-44.14 1.527l-20.81.221-.25 3.16c-.13 1.738-.06 5.226.16 7.752.39 4.456 1.57 11.233 2.05 11.705.36.36 32.82.136 43.81-.303 18.19-.725 36.33-2.051 50.6-3.696 10.97-1.266 23.04-3.04 22.53-3.312-1.14-.612-15.09-4.477-22.9-6.345-10.83-2.589-18.66-4.849-20.79-6.002-1.9-1.03-2.91-2.467-2.91-4.136 0-.693-.18-1.117-.46-1.085-.25.029-3.35.26-6.89.514zm-987.343 12.696c-2.289 7.08-4.815 18.335-4.115 18.335.408 0 18.232 3.741 34.787 7.302 15.619 3.359 30.306 6.227 35.177 6.868 1.371.181 1.929.13 1.929-.175 0-.236.176-2.035.392-3.997.531-4.834 1.625-9.757 3.131-14.082l1.253-3.753c0-.083-.868-.265-1.929-.404-4.747-.621-20.929-3.78-35.04-6.839l-24.017-5.149-9.442-2.001c-.74-.171-.917.152-2.126 3.895zm322.744 2.019c-14.866 2.621-44.955 7.093-60.986 9.065l-6.797.836-.097 11.474-.097 11.475h.839c1.209 0 22.064-2.7 32.498-4.207l39.692-6.274.826-.188v-11.567c0-9.029-.1-11.558-.459-11.527-.252.021-2.691.432-5.419.913zm433.516 11.49c0 10.882.048 11.772.643 11.945 4.735 1.379 29.647 5.925 44.36 8.095 31.17 4.596 71.66 8.28 100.1 9.108l3.84.112.32-1.286c.61-2.447.46-10.631-.25-13.227-.82-3.001-2.69-7.538-3.32-8.066-.29-.238-4.73-.62-10.91-.939-46.99-2.429-90.65-7.789-125.965-15.464l-8.175-1.836c-.603-.187-.643.53-.643 11.558zM1.378 347.759l-1.378.174v11.319 11.318l18.645.202c22.653.246 39.086 1.225 63.282 3.771 24.912 2.621 57.494 7.427 83.213 12.272l7.715 1.454 2.326-2.462c3.016-3.194 7.061-9.219 9.299-13.853.976-2.02 1.777-3.877 1.78-4.126.006-.504.185-.456-6.424-1.73-19.554-3.769-41.783-7.482-61.672-10.301l-9.136-1.295H91.254 73.478v-1.968-1.968l-2.48-.229c-5.757-.53-23.636-1.727-30.952-2.072-8.774-.414-36.512-.776-38.667-.506zm714.843 1.263c-5.051.187-9.76.468-10.463.625-1.268.284-1.286.315-2.106 3.76-1.188 4.993-2.257 11.573-2.545 15.672l-.249 3.545 4.191-.235c15.133-.848 26.378-1.06 44.972-.849l22.051.452 1.846.224.847-4.344c.99-5.084 2.817-10.752 4.822-14.959.785-1.647 1.383-3.038 1.329-3.091-.77-.771-49.25-1.37-64.695-.8zm-41.147 2.948c-17.565 1.769-32.912 3.966-52.719 7.547l-11.303 2.124c-.054.053-.054 5.295 0 11.648l.097 11.55 13.492-2.454c20.841-3.791 37.632-6.235 54.107-7.875l6.342-.706c.054-.047.054-5.203 0-11.458l-.097-11.375-9.919.999zm207.39 1.274c.303.07 6.833 1.299 14.511 2.731l26.401 5.179c6.842 1.416 12.546 2.465 12.675 2.331.351-.363-3.98-4.211-6.327-5.623-3.761-2.261-8.072-3.705-13.277-4.448-2.279-.325-35.378-.49-33.983-.17zm373.816.938c-30.49 6.06-64.16 9.063-109.22 9.741-14.99.226-16.62.309-16.42.834.62 1.62 3.7 6.863 5.58 9.494 2.91 4.06 5.94 7.427 9.26 10.281l2.79 2.397 11.39-.238c47.96-1.006 90.97-6.349 124.54-15.474 8.52-2.314 8-1.891 5.06-4.104-6.59-4.976-15.85-9.759-25.27-13.053l-2.57-.901-5.14 1.023zm-422.4 1.93c-7.254 3.691-13.331 10.163-16.073 17.119-.421 1.068-.718 1.987-.66 2.041s4.487.62 9.841 1.255c30.818 3.659 67.964 10.019 106.507 18.238l9.827 1.99c.395 0 .495-1.201.495-5.923 0-6.2-.655-11.984-1.773-15.658l-.642-2.106-2.007-.458c-1.104-.252-8.537-1.779-16.519-3.393-25.81-5.22-51.327-9.648-72.926-12.655-14.025-1.952-13.163-1.928-16.07-.45zm-403.448 2.079c-15.13 1.422-33.417 2.411-51.589 2.788l-12.241.254.24.952c1.569 6.232 2.563 14.339 2.306 18.79l-.169 2.921h7.378c15.605-.001 47.729-1.783 63.921-3.546l2.168-.236-.235-6.284c-.129-3.457-.567-8.517-.973-11.245l-.739-5.052c-.003-.192-3.365.028-10.067.658zM197.52 371.276c-.635 4.635.091 21.315.952 21.853.204.128 2.624.678 5.379 1.224l21.174 4.475c25.372 5.467 49.35 10.052 52.573 10.052.807 0 .784-.097-.759-3.215-2.809-5.675-4.869-12.63-5.544-18.713l-.252-2.27-2.619-.429c-5.281-.866-19.823-3.787-31.275-6.285l-24.799-5.297-13.819-2.914c-.683-.158-.806.026-1.011 1.519zm1095.68 4.731c-28.51 10.068-75.44 17.353-120.93 18.774-4.31.135-8.16.36-8.55.501-.53.19.52.737 4.04 2.11 2.62 1.019 5.83 2.196 7.14 2.616 5.82 1.86 26.95 7.895 29.95 8.552 1.81.399 7.27 1.727 12.12 2.951l8.82 2.227 4.77-.612c26.96-3.453 55.3-9.899 74.5-16.94 5.44-1.995 5.2-1.298 2.37-6.963-2.95-5.912-9.1-14.566-10.29-14.481-.24.018-2.02.588-3.94 1.265zm-775.919 2.398c-13.046 2.204-40.957 6.293-52.812 7.738l-6.704.817.004 6.459c.004 5.428.752 15.978 1.161 16.379.439.43 39.843-5.113 60.477-8.507l12.669-2.084-.231-2.971c-.127-1.634-.232-6.816-.233-11.514l-.003-8.542-.826.042c-.455.024-6.531 1.006-13.502 2.183zm441.966 10.224v11.715l.827.182c18.327 4.04 39.966 7.685 62.586 10.542 10.58 1.336 10.43 1.33 10.43.404 0-.701.51-.718 23.79-.841 23.25-.123 23.85-.145 26.73-.942 5.78-1.605 11.65-4.906 15.74-8.854 2.29-2.214 5.02-5.501 5.02-6.058 0-.125-1.31-.226-2.9-.226s-7.25-.249-12.58-.554c-46.57-2.662-90.557-8.314-124.63-16.015l-4.868-1.067c-.079 0-.145 5.271-.145 11.714zM.001 390.601v11.482l14.42.053c15.255.056 25.311.445 41.79 1.618 30.182 2.148 66.938 6.95 102.587 13.402l9.648 1.644c.335 0-1.948-3.341-5.674-8.306l-6.234-8.305 4.571-3.543c4.377-3.393 4.529-3.555 3.567-3.818-.553-.151-7.865-1.422-16.251-2.824-52.206-8.728-96.271-12.874-136.943-12.882l-11.481-.003v11.482zm714.934-10.012l-10.616.558-3.819.255.245 4.597c.342 6.396 1.86 17.332 2.485 17.898.073.067 2.53-.027 5.46-.209 14.148-.873 49.338-.946 65.086-.134l5.386.278-1.232-3.079c-2.326-5.815-4.213-13.867-4.213-17.983 0-1.66-.048-1.74-1.194-1.961-1.914-.37-50.124-.555-57.588-.22zm-39.31 2.773c-20.211 2.11-44.623 5.761-62.68 9.374l-1.877.376-.253 3.75c-.455 6.727-2.383 13.878-4.985 18.489-.611 1.083-1.111 2.023-1.111 2.091s5.58-.919 12.4-2.192c24.055-4.488 41.61-7.151 59.309-8.997 7.33-.764 7.986-.89 8.199-1.582.128-.413.327-5.587.442-11.498.203-10.375.186-10.746-.484-10.71-.382.02-4.414.424-8.96.899zm139.62 3.197c.027 5.666 1.711 11.66 4.636 16.499 2.781 4.601 2.506 4.46 10.597 5.409 26.369 3.093 59.829 8.814 98.231 16.798l9.779 1.908c.917-1.116 4.594-18.441 4.594-21.648 0-.723 1.063-.461-16.348-4.033-37.19-7.631-70.172-13.011-101.032-16.481l-10.195-1.115c-.151 0-.269 1.198-.262 2.663zm-381.728 2.859c-15.796 1.523-31.303 2.425-50.694 2.947l-15.041.566c-.091.092-.558 1.527-1.036 3.19-1.657 5.763-4.701 12.012-8.229 16.893l-1.792 2.48 11.485-.005c25.04-.01 68.122-2.412 69.204-3.858.914-1.221 3.371-13.024 4.379-21.03.234-1.856.21-1.927-.618-1.884-.474.025-3.92.34-7.658.701zm-233.092 15.704c1.656 7.008 6.721 21.296 7.648 21.573.5.15 31.322 6.721 39.741 8.473 50.886 10.59 108.135 14.13 166.214 10.279 6.505-.431 7.581-.589 8.016-1.172 1.26-1.689 4.81-7.656 6.745-11.336 2.413-4.59 5.551-11.601 5.303-11.849-.091-.091-3.274.097-7.075.419-20.636 1.745-37.704 2.43-60.682 2.433l-18.137.002-2.487 1.654c-4.963 3.3-10.691 5.723-16.591 7.018-4.084.896-12.97 1.093-17.074.378-9.154-1.595-17.385-5.698-24.2-12.063l-2.666-2.49-7.3-1.134c-10.746-1.67-21.598-3.721-35.037-6.621l-42.303-9-.973-.196.858 3.632zm1099.025.149c-14.45 5.513-33.74 10.482-53.89 13.877l-6.88 1.122c-.13 0-.12.664.01 1.475.7 4.386-2.97 7.636-11.43 10.114-2.87.839-3.97.968-8.27.959-6.33-.013-12.46-1.053-26.27-4.461l-10.29-2.538-6.24.345c-3.44.19-14.26.45-24.06.577l-17.82.232-1.41 1.333c-1.86 1.763-5.08 6.639-6.28 9.52-.98 2.339-2.16 6.936-2.58 10.054l-.24 1.707 4.7.276c5.31.311 31.79-.029 45.12-.579 52.67-2.174 97.18-9.391 129.87-21.063 8.54-3.048 10.09-3.736 10.21-4.534.09-.608-7.75-19.762-8.33-20.362-.13-.126-2.79.75-5.92 1.946zm-772.8 3.101c-12.454 2.261-41.647 6.655-58.415 8.792l-7.83 1.088c-.178.162 1.673 7.356 2.74 10.652 1.423 4.395 3.838 10.6 4.309 11.067.71.706 32.024-3.773 63.421-9.073l16.318-2.85 1.071-.277-1.806-1.326c-5.264-3.866-10.45-11.234-12.298-17.473-.557-1.878-.499-1.873-7.51-.6zm432.597 11.857v11.715l1.011.173c.555.096 5.143 1.018 10.195 2.05 35.937 7.343 84.567 12.955 127.847 14.754l11.87.508c3.08.145 3.05.243.91-3.009-2.7-4.097-9.15-9.683-14.06-12.178-2.79-1.414-7.38-2.812-10.79-3.287-1.82-.253-11.97-.397-28-.397h-25.14v-4.91-4.91l-3.95-.437c-18.09-2.003-44.073-6.275-61.741-10.151l-7.807-1.637c-.208 0-.345 4.66-.345 11.716zM.001 422.049v11.332l16.624.236c19.4.277 34.896 1.05 51.658 2.578 2.679.244 4.943.37 5.033.281s.162-5.252.162-11.474V413.69l-1.194-.192c-1.431-.231-13.515-1.154-21.951-1.678-12.223-.76-23.643-1.101-36.83-1.102l-13.501-.001v11.332zm724.854-10.24c-12.41.314-19.472.703-19.472 1.074 0 .465 2.828 8.618 3.964 11.429.613 1.515 1.958 4.555 2.989 6.755l1.876 4 3.025-.228c12.087-.911 44.039-.572 64.93.689 40.594 2.451 84.726 8.614 135.348 18.901 3.011.612 5.667 1.113 5.901 1.113 1.285 0 12.725-19.926 11.908-20.741-.526-.525-42.649-8.5-60.301-11.418l-10.196-1.686-1.744 1.453c-5.265 4.383-11.255 6.824-22.151 9.027-10.735 2.171-23.072 1.607-32.277-1.476-8.486-2.841-17.085-8.723-22.079-15.102l-2.021-2.581-2.939-.233c-10.955-.87-40.695-1.382-56.761-.976zm-646.738 2.674c2.493 4.177 16.446 24.525 16.817 24.525.982 0 20.32 2.602 28.875 3.885 17.535 2.63 46.579 7.697 61.629 10.752 5.925 1.202 5.585 1.368 4.666-2.275-1.072-4.247-4.217-9.929-9.105-16.451-2.519-3.36-4.769-6.226-5-6.369-.569-.351-15.577-3.084-30.33-5.522-20.415-3.374-41.69-6.296-60.188-8.267-8.178-.872-7.709-.854-7.365-.278zm603.386-.21c-26.724 2.731-40.101 4.695-70.722 10.381-15.717 2.92-15.813 2.943-18.92 4.592-7.477 3.967-16.697 5.656-25.438 4.657-3.535-.403-3.701-.386-13.777 1.443-24.051 4.367-52.442 8.977-71.186 11.559l-9.67 1.469c-.257.257 3.184 5.587 6.17 9.556 1.52 2.021 4.418 5.378 6.439 7.46l3.675 3.785 11.205-1.693c24.697-3.732 48.048-7.795 97.358-16.942 43.294-8.031 58.446-10.504 75.314-12.293 2.324-.246 4.412-.63 4.642-.853 1.069-1.042 4.382-11.592 5.98-19.047.847-3.949.893-4.35.491-4.264-.151.032-.854.118-1.561.19zm160.456 4.403a1.42 1.42 0 0 0 .919 0c.252-.102.046-.185-.46-.185s-.711.083-.459.185zm2.419.369c.135.135.355.135.49 0s.024-.245-.245-.245-.38.111-.245.245zm455.252 17.642c-25.96 10.103-64.21 17.183-108.75 20.129-15.39 1.019-24.03 1.313-45.4 1.547l-21.16.232.47 2.255c.67 3.172 2.05 6.823 3.5 9.249 1.54 2.564 5.49 6.861 8.58 9.315l2.32 1.848h11.15c53.75-.001 108.95-7.196 145.49-18.963l3.92-1.261 2.26-3.391c1.25-1.865 3.41-5.667 4.8-8.45l2.54-5.059-.69-1.738c-1.75-4.383-3.23-7.58-3.54-7.644-.19-.039-2.66.83-5.49 1.931zm-1086.352.76c5.54 9.698 17.791 25.284 20.564 26.162 3.284 1.041 22.798 4.895 35.27 6.967 33.006 5.483 62.044 7.74 99.612 7.744l19.522.002 1.97-1.336c6.3-4.273 18.303-15.207 23.092-21.036l1.628-1.981-4.395.251-10.64.607c-11.038.629-41.417.848-53.455.384-38.023-1.463-68.073-5.29-105.646-13.455l-28.31-6.054c-.115 0 .239.785.788 1.745zm745.969 13.67c0 8.442.115 11.419.46 11.877.328.437 3.287 1.182 10.378 2.613 29.817 6.015 64.885 10.607 101.215 13.252 12.27.894 33.6 2.033 38.08 2.034l1.89.001 1.5-3.031c2.39-4.823 3.09-8.005 3.13-14.115.02-2.863-.04-5.286-.15-5.385-.1-.099-4.73-.366-10.28-.592-53.09-2.165-104.12-8.275-142.457-17.057l-3.766-.863v11.266zM4.318 442.213l-4.317.125v11.379 11.378l12.399.001c17 .001 31.564.636 51.13 2.228 5.997.489 9.095.609 9.341.363.229-.229.379-4.585.396-11.493l.028-11.123-4.776-.431c-18.552-1.672-49.662-2.848-64.201-2.427zm719.71 1.111c-2.576.064-4.684.211-4.684.327 0 .417 4.97 7.331 7.792 10.84 1.581 1.966 4.517 5.295 6.525 7.397l3.649 3.823 14.989.242c42.896.691 83.686 4.987 135.278 14.247l8.236 1.478 3.148-2.137c1.731-1.176 4.886-3.568 7.011-5.315 3.902-3.212 12.047-11.171 11.742-11.476-.091-.09-5.455-1.168-11.921-2.396-68.946-13.084-125.719-18.403-181.765-17.03zm-57.588 4.001c-20.773 2.54-30.825 4.195-73.11 12.035l-93.853 16.444-2.557.406 1.08.862c1.597 1.273 9.788 6.076 13.587 7.967 4.306 2.144 12.478 5.36 17.897 7.043l4.305 1.337 7.635-1.325 66.418-12.112 41.907-7.368c.751-.119 2.28-1.216 4.568-3.275 6.661-5.994 12.073-12.665 17.232-21.237l.829-1.378-.856.042c-.471.023-2.758.275-5.082.559zm-565.547 1.328c.149.253 3.958 5.937 8.464 12.633l8.194 12.173 3.037.433c12.689 1.806 41.61 6.742 56.806 9.695l6.375 1.239 1.11-1.507c1.756-2.386 4.622-8.583 5.453-11.794.418-1.617.854-4.203.968-5.746.188-2.532.141-2.828-.484-3.019-1.042-.319-24.857-4.768-34.522-6.45-14.741-2.566-33.176-5.393-48.098-7.378-6.564-.873-7.68-.916-7.303-.279zm1184.957 24.226c-6.64 2.107-19.03 5.191-28.41 7.068-26.91 5.386-57.89 8.568-94.48 9.704l-8.08.252 4.04 1.364c13.15 4.439 31.03 6.978 52.91 7.512 30.07.733 53.53-6.156 72.11-21.176 3.04-2.459 7.22-6.351 6.67-6.221-.09.022-2.23.696-4.76 1.497zm-322.442 1.627c4.06 8.01 10.628 14.461 18.638 18.303 6.709 3.218 1.783 2.948 56.004 3.066 52.93.115 50.72.197 56.68-2.116 3-1.161 7.8-3.891 7.8-4.431 0-.193-1.22-.351-2.71-.351s-7.07-.251-12.4-.558c-31.83-1.833-62.6-5.132-91.066-9.764-7.609-1.238-30.61-5.679-33.371-6.443-.836-.232-.826-.177.425 2.294zm-961.57-.434c0 .899 2.747 6.264 4.341 8.476 1.958 2.718 6.531 7.347 9.259 9.372a43.45 43.45 0 0 0 5.135 3.169c2.669 1.357 2.881 1.401 8.076 1.679 2.934.157 8.642.329 12.683.381l7.348.095 3.879-1.925c4.783-2.375 9.231-5.908 12.454-9.894 2.857-3.532 5.833-8.856 5.093-9.109-.637-.219-20.15-1.567-29.509-2.038-4.041-.204-14.415-.479-23.053-.611-14.821-.227-15.706-.204-15.706.405zm243.944.426c0 .064 1.613 1.26 3.582 2.658 22.443 15.919 51.786 23.978 79.264 21.77 13.356-1.073 27.615-4.592 40.045-9.882l4.042-1.72-4.96-.079c-45.779-.734-78.46-4.038-116.737-11.802-2.879-.584-5.236-1.01-5.236-.945zm504.24 1.463c13.247 9.477 31.079 16.69 49.807 20.146 10.711 1.977 17.56 2.558 30.466 2.584 14.978.029 22.286-.761 33.799-3.654 7.033-1.768 20.258-6.498 19.708-7.048-.26-.26-18.448-3.219-29.811-4.849-24.228-3.477-47.259-5.865-69.436-7.199-10.052-.604-27.372-1.283-32.88-1.289l-3.489-.004 1.836 1.313zm-624.812 8.516c2.469 2.936 7.473 7.595 9.944 9.259 2.995 2.018 6.874 3.807 10.554 4.87 3.912 1.129 13.235 1.218 17.229.164 3.017-.796 9.957-4.073 12.269-5.794 1.422-1.058 1.532-1.237.919-1.489-1.737-.715-49.291-8.756-51.781-8.756-.437 0-.199.481.866 1.746zm504.859-.398l-70.813 13.047c-1.854.315-2.545.568-2.278.836.6.6 25.789.508 29.923-.11 16.309-2.436 31.729-6.868 42.984-12.352 4.356-2.123 4.369-2.219.184-1.421z" fill="#ea001c"/><path d="M659.938.52c-21.5 2.606-41.072 11.286-57.609 25.549-15.845 13.667-27.321 32.261-32.516 52.685-2.45 9.634-2.754 12.288-2.729 23.882.02 9.457.1 10.718.988 15.616 1.842 10.158 4.849 18.914 9.794 28.518 10.732 20.844 27.328 37.139 47.804 46.937 10.079 4.823 20.9 8.186 31.625 9.829 6.855 1.05 19.661 1.139 26.964.188 9.817-1.278 21.715-4.129 30.553-7.322l4.467-1.613 11.146 11.177c6.13 6.147 12.155 11.906 13.39 12.797 5.165 3.731 9.923 5.111 16.676 4.838 8.235-.333 14.088-3.323 20.092-10.264 2.593-2.997 4.408-6.197 5.686-10.028.751-2.253.858-3.278.858-8.267 0-5.292-.075-5.924-1.066-8.948-1.212-3.697-3.662-7.669-6.266-10.158-.952-.909-5.533-5.573-10.179-10.364l-8.448-8.712 1.643-2.311c2.687-3.779 6.682-11.044 8.696-15.814 4.898-11.597 6.986-22.39 6.986-36.099 0-11.371-1.336-20.112-4.651-30.424-8.025-24.962-25.182-45.768-48.481-58.789-4.265-2.384-6.945-3.628-13.285-6.166-8.842-3.541-17.161-5.523-28.369-6.759-6.093-.672-18.127-.661-23.769.023zM820.181.302c-7.463 1.054-13.371 3.971-18.567 9.168-5.317 5.317-8.225 11.29-9.152 18.799-.31 2.514-.387 15.808-.28 48.831l.768 49.724c3.949 27.617 16.31 47.879 37.024 60.694 11.874 7.346 25.41 12.134 42.762 15.125 5.567.961 6.477 1.013 17.627 1.019 11.203.005 12.032-.043 17.626-1.013 25.568-4.434 43.836-12.948 57.746-26.913 11.512-11.558 18.838-26.549 21.776-44.56 1.427-8.751 1.542-13.543 1.42-59.588l-.118-44.274-.848-2.928c-1.834-6.331-4.535-10.865-9.114-15.301-4.744-4.596-9.756-7.315-15.562-8.441-5.957-1.156-14.395-.29-19.597 2.011-8.235 3.643-15.438 12.099-17.986 21.12-.788 2.786-.794 3.098-1.006 50.017l-.864 49.948c-1.379 5.784-3.548 10.271-6.949 14.376-12.296 14.838-40.878 14.652-52.957-.345-3.216-3.993-5.076-7.817-6.724-13.826-.541-1.974-.626-7.171-.817-49.602l-.213-47.397-.822-2.939c-2.664-9.513-9.474-17.601-17.99-21.368C832.871.653 825.143-.398 820.181.302zm-304.431.751c-10.556 1.782-20.197 9.583-24.166 19.556-2.147 5.395-2.04 1.11-2.04 82.027v74.586l.817 2.965c1.778 6.449 4.304 10.595 9.455 15.52 2.832 2.707 4.161 3.668 7.136 5.157 5.105 2.556 8.093 3.187 14.922 3.151 4.46-.023 6.066-.181 8.428-.83 10.983-3.014 19.333-11.553 22.336-22.84l.831-3.123v-74.769-74.77l-.847-3.098c-3.286-12.029-12.556-20.891-24.396-23.325-2.976-.612-9.44-.718-12.476-.206zm706.36.008c-24.78 2.488-45.78 12.066-58.85 26.845-10.88 12.292-16.6 29.056-15.19 44.551.93 10.297 4.2 18.971 10.17 26.919 2.67 3.555 8.22 8.79 11.96 11.279 3.71 2.469 11.62 6.353 16.59 8.142 5.66 2.04 25.53 7.619 36.06 10.124 9.34 2.224 19.18 5.23 20.99 6.412 1.54 1.012 2.4 2.746 2.22 4.498-.31 3.028-2.16 4.661-7.48 6.608-3.29 1.203-4.03 1.334-8.38 1.48-7.51.252-12.23-.644-36.74-6.984-15.91-4.112-15.51-4.036-21.31-4.086-4.48-.038-5.46.065-7.58.798-7.85 2.713-14.5 10.064-16.66 18.42-1.96 7.555-1.27 15.589 1.9 22.073 2.56 5.237 11.12 12.582 19.05 16.349 9.09 4.312 21.49 7.22 36.72 8.609 14.37 1.311 26.97 1.389 36 .224 24.24-3.127 42.15-12.548 55.56-29.224 6.75-8.406 10.68-16.339 12.99-26.27 1.09-4.653 1.4-15.839.58-20.977-2.79-17.578-14.24-32.617-31.1-40.826-4.88-2.375-10.17-4.484-16.31-6.501-7-2.3-25.9-7.55-35.74-9.93-13.48-3.26-16.3-4.399-16.83-6.782-.27-1.231.55-3.465 1.72-4.718 2.01-2.133 9.81-3.34 15.06-2.331 5.44 1.042 18.9 4.535 24 6.222 7.25 2.403 12.34 3.383 18.73 3.612 6.06.217 9.23-.314 13.21-2.217 6.02-2.872 11.36-9.147 13.6-15.978 1.4-4.272 1.32-11.799-.19-17.276-1.92-7.016-6.97-13.318-13.94-17.409-8.53-5.002-20.87-9.098-33.07-10.974-5.65-.869-21.9-1.269-27.74-.683zM159.447 3.056c-12.332 2.544-22.125 11.953-25.44 24.443l-.829 3.123v71.096 71.095l.78 3.495c2.718 12.188 10.308 20.7 21.717 24.356 2.48.794 2.586.796 43.817.912l45.005-.299c13.001-1.47 23.45-5.744 32.972-13.486 3.868-3.146 9.932-9.693 12.414-13.405 6.697-10.013 9.905-20.688 9.905-32.959 0-6.798-.629-11.092-2.419-16.503-3.506-10.602-10.533-19.856-19.327-25.452-2.028-1.291-4.079-2.678-4.558-3.082l-.87-.735 2.014-3.123c3.572-5.539 5.979-11.951 7.377-19.657 1.014-5.585.925-16.327-.178-21.494-2.271-10.643-6.993-19.637-14.322-27.277-10.8-11.259-23.797-17.624-42.296-20.716-3.42-.572-7.232-.655-33.616-.735-23.726-.072-30.243.01-32.146.402zm177.631-.143c-12.773 1.897-21.827 10.525-25.028 23.851-.623 2.597-.668 6.903-.782 74.586l.282 74.954c.913 7.086 3.853 12.76 9.52 18.371 5.187 5.136 10.257 7.86 16.731 8.989 5.829 1.017 10.772.638 16.261-1.245 7.766-2.665 14.798-9.07 18.249-16.621 2.655-5.809 2.559-4.649 2.778-33.264l.197-25.791 21.098 31.03 23.456 33.978c5.569 6.96 13.152 11.587 21.025 12.829 13.156 2.076 27.184-5.571 33.235-18.116 2.546-5.278 2.945-7.19 2.929-14.018-.014-5.417-.095-6.124-1.038-9.002-.564-1.718-1.673-4.339-2.467-5.827-1.054-1.973-18.001-24.819-26.092-35.172-.203-.259 1.473-1.773 4.775-4.315 17.254-13.28 24.736-27.915 24.734-48.378s-7.623-38.921-20.84-50.477c-7.854-6.867-18.825-12.215-29.839-14.545-9.616-2.034-7.667-1.952-48.771-2.052-21.015-.051-39.201.055-40.413.235zm693.012.177c-11.81 2.138-21.19 10.939-24.64 23.123l-.83 2.939-.11 70.545.29 73.383c1.84 12.905 12.28 24.639 24.77 27.832 2.83.725 3.95.744 44.3.744 40.3 0 41.48-.02 44.31-.741 6.96-1.776 13.82-6.354 17.49-11.687 5.86-8.499 6.05-20.578.47-29.303-2.58-4.037-8.11-8.67-13.1-10.969-5.73-2.645-4.54-2.54-30.71-2.685l-23.6-.13v-8.434-8.433l19.19-.003c11.3-.001 20.18-.157 21.59-.379 11.69-1.844 21.87-10.789 24.06-21.135 2.63-12.428-3.88-24.296-16.55-30.15-5.7-2.633-6.46-2.705-28.54-2.708l-19.75-.003v-8.267-8.267h23.35c26.09 0 26.1-.001 31.57-2.549 4.86-2.263 9.17-6.175 12.07-10.949 7.05-11.613 4.47-27.343-5.9-35.921-3.09-2.559-8.27-5.168-11.68-5.879-3.71-.775-83.75-.751-88.05.026zM11.914 5.676c-1.883.668-4.439 3.097-5.334 5.068-.644 1.419-.685 2.864-.689 24.655l-.004 23.147.862 1.851c1.061 2.278 3.737 4.702 5.832 5.282 1.111.308 5.673.402 15.737.324l14.172-.109 1.514-1.002c2.992-1.98 4.398-6.056 3.365-9.746-.617-2.204-3.302-5.002-5.345-5.569-.807-.224-4.735-.397-9.049-.398l-7.623-.002V30.794c0-15.169-.093-18.604-.529-19.649-.856-2.049-3.708-4.829-5.625-5.482-2.071-.706-5.275-.7-7.283.012zM1403.23 9.081c-1.61 1.002-2.72 2.333-3.13 3.752-.2.721-.35 7.398-.35 15.766.01 13.326.07 14.636.69 15.985.37.808 1.07 1.831 1.55 2.272 2.91 2.664 7.83 1.837 9.79-1.643.73-1.299.82-1.981.82-6.06v-4.596l4.38-.131c4.86-.144 5.63-.451 7.32-2.92 1.08-1.58.98-4.409-.23-6.109-1.32-1.849-2.79-2.308-7.39-2.308h-4.08v-1.618-1.618l5.12-.127c4.5-.112 5.24-.22 6.15-.896 3.59-2.658 3.6-7.528.03-9.705-1.11-.677-1.86-.73-10.38-.73-8.32 0-9.29.065-10.29.685zM680.137 56.338c14.971 2.611 27.2 13.833 32.41 29.739 1.913 5.841 2.519 10.646 2.274 18.029-.356 10.681-2.547 17.557-8.374 26.269-10.016 14.976-28.003 21.625-45.096 16.671-14.638-4.242-25.907-16.703-29.696-32.836-1.267-5.398-1.576-14.658-.68-20.392 2.997-19.178 15.812-33.655 32.979-37.261 4.256-.894 11.736-.995 16.183-.22zm-465.582 1.68c2.298.518 5.354 2.702 6.489 4.639.808 1.379.921 1.941.794 3.94-.178 2.8-1.201 4.365-4.101 6.279-2.661 1.756-4.199 2.001-12.643 2.011l-7.439.009v-8.634-8.634l7.623.009c4.193.005 8.367.177 9.277.382zm189.926.376c3.913.839 7.227 4.211 8.137 8.28.936 4.183-.775 9.437-3.999 12.275-2.845 2.505-3.264 2.561-19.07 2.561H375.47V69.752 57.995h13.575c8.383 0 14.287.153 15.436.399zm997.889 15.288c-.68.334-1.67 1.269-2.2 2.078l-.98 1.471v15.302 15.302l1.01 1.527c1.87 2.82 2.67 3.012 12.63 3.012 8.59 0 8.73-.012 10.26-.906 3.6-2.112 3.63-6.949.06-9.314-1.36-.9-1.81-.978-6.37-1.112l-4.91-.143v-1.427-1.427h4.26c3.67 0 4.47-.11 5.66-.778 3.99-2.242 3.72-7.441-.49-9.478-1.3-.631-2.28-.766-5.51-.766h-3.92v-1.47-1.47h5.01c5.83 0 7.05-.457 8.25-3.088.86-1.905.86-2.951-.02-4.895-1.33-2.918-1.81-3.037-12.32-3.029-7.79.006-9.38.099-10.42.613zm-1389.81.126c-2.854.581-5.57 2.84-6.957 5.786-.59 1.253-.642 3.216-.642 23.961 0 22.2.014 22.626.774 24.268 1.1 2.379 2.821 4.194 5.009 5.284l1.893.944 13.429-.004c13.34-.003 13.442-.009 15.292-.871 4.181-1.947 6.065-6.703 4.244-10.713-.849-1.869-3.598-4.316-5.485-4.882-.887-.266-4.146-.432-8.472-.432h-7.029v-2.352-2.353l6.521-.143c7.185-.158 8.087-.376 10.555-2.543 4.413-3.875 3.351-10.311-2.197-13.307-1.323-.715-2.138-.806-8.174-.916l-6.705-.122v-2.359-2.359h7.459c7.258 0 7.51-.025 9.338-.937 5.238-2.61 6.322-9.861 2.065-13.81-2.539-2.355-2.383-2.332-16.474-2.4-7.072-.035-13.572.083-14.444.26zm217.176 54.757c1.851.514 4.019 2.516 5.056 4.669.63 1.305.843 2.415.862 4.49.023 2.384-.113 2.992-1.004 4.509-1.195 2.032-3.055 3.38-5.399 3.914-.981.224-7.817.381-16.808.386l-15.155.009v-9.186-9.185l15.523.002c9.809.001 16.038.146 16.925.392zm1179.885 8.806c-7.69 1.171-12.88 5.842-13.45 12.095-.4 4.404 1.93 8.536 5.88 10.456 1.06.511 4.29 1.579 7.19 2.373s5.43 1.598 5.62 1.786c.51.511 0 1.465-.9 1.709-1.68.451-4.1.186-8.37-.915-5.1-1.316-6.28-1.242-7.96.501-2.18 2.256-2.21 5.982-.07 8.193 2.44 2.512 7.06 3.836 13.4 3.836 6.16 0 10.01-1.347 13.32-4.655 4.92-4.911 5.29-11.845.89-16.411-2.14-2.213-5.82-3.782-13.12-5.579-3.02-.746-3.69-1.149-3.08-1.879.63-.764 3.16-.604 6.57.417 5 1.495 7.46 1.133 9.24-1.356 1.03-1.456 1.12-4.315.19-6.086-1.7-3.225-9.22-5.42-15.35-4.485zM19.472 141.583C8.036 143.896.942 151.024.459 160.689c-.259 5.169 1.32 9.026 5.138 12.545 2.846 2.624 6.244 3.896 20.043 7.505 4.853 1.27 5.671 2.55 2.622 4.107-2.103 1.073-5.117.827-12.34-1.01-3.576-.909-7.307-1.653-8.291-1.653-4.082 0-7.114 3.111-7.533 7.727-.346 3.815 1.083 6.453 4.794 8.852 1.222.789 3.307 1.774 4.635 2.189 6.368 1.987 18.231 2.34 23.901.71 6.72-1.932 11.834-6.074 14.74-11.94l1.614-3.258v-4.455c0-4.409-.014-4.486-1.379-7.246-3.004-6.08-8.211-9.092-21.198-12.262-7.516-1.835-8.47-2.359-6.989-3.841 1.331-1.331 4.003-1.005 13.573 1.655 2.256.627 5.75.733 7.111.215 1.413-.537 3.526-2.568 4.348-4.181 1.147-2.249.862-6.14-.627-8.555-1.736-2.815-5.809-4.974-11.665-6.183-3.37-.697-10.105-.71-13.483-.027zm1379.568 61.256c-1.95 1.003-2.97 2.727-2.97 5.014 0 3.507 2.58 5.537 7.06 5.552l2.46.008.11 12.401.11 12.4.88 1.237c1.03 1.445 3.34 2.601 5.21 2.613 1.93.012 4.41-1.435 5.38-3.143.8-1.411.82-1.703.83-13.475v-12.033h2.89c3.27 0 4.68-.665 6.23-2.948 1.56-2.294.74-5.523-1.91-7.5-.97-.724-1.55-.763-12.84-.861-11.68-.101-11.84-.093-13.44.735zm10.85 63.864c-1.38.412-3.12 2.058-3.76 3.557s-.75 30.648-.12 32.32c.89 2.34 3.51 4.158 6.01 4.158 2.61 0 4.6-1.334 5.77-3.858.62-1.352.67-2.659.67-16.35 0-13.662-.05-15.001-.67-16.351-1.41-3.076-4.58-4.47-7.9-3.476zm-13 65.042c-2.02 1.025-3.39 3.269-3.38 5.521 0 1.288 1.31 4.599 6.39 16.134 7.33 16.659 7.91 17.601 11.1 17.908 2.31.222 4.11-.336 5.39-1.67.97-1.015 13.68-29.271 14.09-31.337.52-2.583-1.25-5.749-3.81-6.817-1.54-.644-3.92-.634-5.18.022-2.26 1.18-2.92 2.42-6.19 11.551-2.86 7.958-3.25 8.828-3.63 8.069-.23-.467-1.64-4.304-3.12-8.528-2.79-7.906-3.5-9.361-5.21-10.627-1.51-1.116-4.5-1.221-6.45-.226zm12.4 64.251c-1.83.559-3.25 1.503-4.68 3.129-1.23 1.406-2.24 3.692-6.62 14.985-2.84 7.329-5.28 13.932-5.41 14.674-.51 2.752.78 5.17 3.52 6.566 3.53 1.803 7.37.111 8.98-3.965l.62-1.562 6.3.004 6.3.004 1.02 2.19c1.74 3.757 5.17 5.02 8.72 3.221.9-.454 2.03-1.405 2.5-2.112.74-1.104.84-1.625.71-3.674-.13-1.986-1-4.543-5.14-15.176-2.74-7.032-5.41-13.426-5.93-14.207-1.13-1.712-3.04-3.228-4.91-3.896-1.5-.535-4.51-.626-5.98-.181zm2.82 22.73c-1.4.059-2.58.059-2.65-.002-.06-.061.49-2.244 1.22-4.852l1.33-4.743 1.31 4.744 1.31 4.744-2.52.109zm-9.46 42.428c-.68.46-1.61 1.394-2.07 2.075l-.84 1.24v15.392c0 14.608.04 15.464.73 16.816.4.783 1.27 1.81 1.93 2.282 1.18.84 1.4.86 10.94.957 9.26.095 9.79.064 10.95-.653 2.48-1.532 3.23-5.316 1.56-7.868-1.41-2.154-2.27-2.412-8.01-2.415l-5.24-.003v-11.298c0-6.637-.16-11.861-.38-12.664-.45-1.628-1.88-3.414-3.32-4.158-1.63-.845-4.77-.696-6.25.297z" fill="#000"/></svg>