<svg width="659" height="233" viewBox="0 0 659 233" fill="none" xmlns="http://www.w3.org/2000/svg">
<g clip-path="url(#clip0_1490_393)">
<path d="M260.26 230.31C258.193 229.175 256.486 227.485 255.33 225.43C254.155 223.259 253.54 220.829 253.54 218.36C253.54 215.891 254.155 213.462 255.33 211.29C256.493 209.249 258.199 207.57 260.26 206.44C262.451 205.257 264.91 204.658 267.4 204.7C269.547 204.662 271.674 205.128 273.61 206.06C275.408 206.946 276.909 208.336 277.93 210.06L275.22 211.9C274.387 210.611 273.218 209.574 271.84 208.9C270.457 208.227 268.937 207.884 267.4 207.9C265.57 207.869 263.763 208.317 262.16 209.2C260.619 210.063 259.359 211.351 258.53 212.91C257.662 214.614 257.21 216.498 257.21 218.41C257.21 220.322 257.662 222.207 258.53 223.91C259.362 225.459 260.622 226.736 262.16 227.59C263.762 228.476 265.569 228.928 267.4 228.9C268.936 228.902 270.453 228.56 271.84 227.9C273.222 227.232 274.392 226.193 275.22 224.9L277.93 226.74C276.902 228.47 275.39 229.861 273.58 230.74C271.653 231.668 269.537 232.133 267.4 232.1C264.905 232.127 262.446 231.51 260.26 230.31Z" fill="#001DB7"/>
<path d="M288.56 230.28C286.506 229.136 284.807 227.447 283.65 225.4C282.476 223.234 281.86 220.809 281.86 218.345C281.86 215.881 282.476 213.456 283.65 211.29C284.808 209.251 286.507 207.573 288.56 206.44C290.718 205.302 293.121 204.707 295.56 204.707C298 204.707 300.402 205.302 302.56 206.44C304.609 207.571 306.303 209.25 307.45 211.29C308.607 213.462 309.213 215.884 309.213 218.345C309.213 220.806 308.607 223.229 307.45 225.4C306.304 227.448 304.611 229.138 302.56 230.28C300.41 231.442 298.004 232.05 295.56 232.05C293.116 232.05 290.711 231.442 288.56 230.28V230.28ZM300.7 227.52C302.213 226.652 303.445 225.368 304.25 223.82C305.092 222.119 305.53 220.248 305.53 218.35C305.53 216.453 305.092 214.581 304.25 212.88C303.446 211.33 302.214 210.042 300.7 209.17C299.121 208.317 297.355 207.87 295.56 207.87C293.765 207.87 291.999 208.317 290.42 209.17C288.903 210.044 287.665 211.33 286.85 212.88C285.989 214.575 285.541 216.449 285.541 218.35C285.541 220.251 285.989 222.125 286.85 223.82C287.665 225.367 288.903 226.65 290.42 227.52C291.997 228.38 293.764 228.83 295.56 228.83C297.356 228.83 299.123 228.38 300.7 227.52Z" fill="#001DB7"/>
<path d="M358.1 207.65C360.027 209.603 360.99 212.467 360.99 216.24V231.83H357.36V216.56C357.36 213.773 356.694 211.643 355.36 210.17C354.623 209.417 353.732 208.831 352.749 208.452C351.766 208.072 350.712 207.908 349.66 207.97C348.441 207.905 347.223 208.102 346.086 208.547C344.949 208.992 343.921 209.675 343.07 210.55C341.379 212.527 340.519 215.083 340.67 217.68V231.79H337.04V216.56C337.04 213.77 336.36 211.64 335.04 210.17C334.294 209.415 333.395 208.828 332.403 208.448C331.411 208.069 330.35 207.906 329.29 207.97C328.075 207.91 326.861 208.109 325.728 208.554C324.595 208.999 323.57 209.679 322.72 210.55C321.012 212.519 320.14 215.078 320.29 217.68V231.79H316.66V204.9H320.14V209.81C321.082 208.191 322.471 206.879 324.14 206.03C325.963 205.116 327.981 204.659 330.02 204.7C332.065 204.651 334.087 205.145 335.88 206.13C337.542 207.103 338.841 208.592 339.58 210.37C340.569 208.598 342.053 207.152 343.85 206.21C345.809 205.178 347.997 204.658 350.21 204.7C351.657 204.631 353.102 204.857 354.458 205.364C355.815 205.872 357.054 206.649 358.1 207.65V207.65Z" fill="#001DB7"/>
<path d="M412.34 207.65C414.26 209.603 415.22 212.467 415.22 216.24V231.83H411.6V216.56C411.6 213.77 410.92 211.64 409.6 210.17C408.862 209.418 407.972 208.832 406.989 208.452C406.005 208.073 404.952 207.908 403.9 207.97C402.68 207.905 401.459 208.101 400.321 208.546C399.183 208.991 398.153 209.674 397.3 210.55C395.62 212.521 394.764 215.064 394.91 217.65V231.76H391.28V216.56C391.28 213.773 390.613 211.643 389.28 210.17C388.535 209.413 387.636 208.825 386.644 208.446C385.652 208.066 384.59 207.904 383.53 207.97C382.307 207.903 381.083 208.098 379.941 208.543C378.799 208.988 377.766 209.673 376.91 210.55C375.202 212.519 374.33 215.077 374.48 217.68V231.79H370.91V204.9H374.38V209.81C375.323 208.192 376.712 206.88 378.38 206.03C380.202 205.113 382.221 204.657 384.26 204.7C386.302 204.65 388.321 205.144 390.11 206.13C391.775 207.103 393.077 208.591 393.82 210.37C394.805 208.598 396.285 207.152 398.08 206.21C400.042 205.176 402.233 204.657 404.45 204.7C405.896 204.633 407.341 204.86 408.697 205.367C410.053 205.874 411.293 206.651 412.34 207.65V207.65Z" fill="#001DB7"/>
<path d="M449.32 204.9V231.79H445.84V226.89C444.906 228.485 443.545 229.788 441.91 230.65C440.146 231.581 438.174 232.049 436.18 232.01C432.673 232.01 429.907 231.03 427.88 229.07C425.853 227.11 424.837 224.24 424.83 220.46V204.86H428.46V220.1C428.46 222.93 429.16 225.1 430.56 226.54C431.352 227.305 432.294 227.895 433.328 228.274C434.361 228.653 435.462 228.812 436.56 228.74C437.796 228.805 439.032 228.608 440.187 228.162C441.342 227.715 442.389 227.03 443.26 226.15C444.988 224.171 445.868 221.592 445.71 218.97V204.9H449.32Z" fill="#001DB7"/>
<path d="M481.24 207.65C483.24 209.65 484.24 212.46 484.24 216.21V231.8H480.609V216.56C480.609 213.773 479.913 211.644 478.519 210.17C477.728 209.406 476.785 208.815 475.752 208.436C474.719 208.058 473.618 207.899 472.519 207.97C471.257 207.904 469.994 208.1 468.811 208.543C467.627 208.987 466.547 209.67 465.639 210.55C464.764 211.51 464.088 212.635 463.654 213.859C463.219 215.084 463.034 216.383 463.109 217.68V231.79H459.479V204.9H462.959V209.9C463.942 208.27 465.368 206.953 467.069 206.1C468.966 205.16 471.063 204.693 473.18 204.74C474.649 204.661 476.12 204.878 477.505 205.378C478.889 205.878 480.159 206.651 481.24 207.65V207.65Z" fill="#001DB7"/>
<path d="M494.04 198.26C493.794 198.022 493.599 197.736 493.469 197.419C493.338 197.103 493.274 196.763 493.28 196.42C493.277 196.086 493.344 195.754 493.475 195.446C493.605 195.139 493.798 194.861 494.04 194.63C494.55 194.142 495.229 193.869 495.935 193.869C496.641 193.869 497.32 194.142 497.83 194.63C498.072 194.854 498.266 195.126 498.396 195.429C498.527 195.733 498.593 196.06 498.59 196.39C498.596 196.74 498.533 197.089 498.402 197.414C498.271 197.739 498.076 198.034 497.829 198.283C497.582 198.531 497.287 198.727 496.963 198.859C496.638 198.99 496.29 199.056 495.94 199.05C495.586 199.054 495.235 198.986 494.909 198.85C494.582 198.714 494.286 198.514 494.04 198.26V198.26ZM494.1 204.9H497.72V231.79H494.1V204.9Z" fill="#001DB7"/>
<path d="M511.91 230.31C509.842 229.178 508.133 227.487 506.98 225.43C505.805 223.259 505.19 220.829 505.19 218.36C505.19 215.891 505.805 213.462 506.98 211.29C508.14 209.246 509.847 207.567 511.91 206.44C514.097 205.256 516.553 204.657 519.04 204.7C521.188 204.66 523.315 205.126 525.25 206.06C527.048 206.946 528.549 208.336 529.57 210.06L526.86 211.9C526.029 210.614 524.864 209.577 523.49 208.9C522.104 208.228 520.581 207.886 519.04 207.9C517.21 207.871 515.404 208.319 513.8 209.2C512.259 210.063 510.999 211.351 510.17 212.91C509.309 214.616 508.86 216.5 508.86 218.41C508.86 220.321 509.309 222.205 510.17 223.91C511.003 225.459 512.263 226.736 513.8 227.59C515.403 228.475 517.209 228.926 519.04 228.9C520.579 228.901 522.099 228.559 523.49 227.9C524.867 227.228 526.033 226.19 526.86 224.9L529.57 226.74C528.547 228.47 527.038 229.861 525.23 230.74C523.3 231.667 521.181 232.132 519.04 232.1C516.549 232.128 514.093 231.511 511.91 230.31V230.31Z" fill="#001DB7"/>
<path d="M554.11 207.33C555.983 209.09 556.92 211.69 556.92 215.13V231.79H553.44V227.65C552.593 229.075 551.339 230.214 549.84 230.92C548.074 231.747 546.139 232.151 544.19 232.1C541.626 232.234 539.096 231.474 537.03 229.95C536.173 229.28 535.487 228.417 535.027 227.432C534.567 226.447 534.345 225.367 534.38 224.28C534.341 223.231 534.545 222.188 534.975 221.231C535.405 220.273 536.05 219.428 536.86 218.76C538.506 217.36 541.136 216.66 544.75 216.66H553.29V215.03C553.356 214.06 553.218 213.087 552.884 212.174C552.549 211.261 552.027 210.428 551.35 209.73C549.756 208.426 547.724 207.779 545.67 207.92C544 207.914 542.342 208.199 540.77 208.76C539.302 209.279 537.945 210.07 536.77 211.09L535.13 208.38C536.576 207.175 538.244 206.265 540.04 205.7C541.976 205.066 544.002 204.745 546.04 204.75C549.546 204.717 552.236 205.577 554.11 207.33ZM550.02 227.78C551.51 226.805 552.654 225.384 553.29 223.72V219.32H544.85C540.25 219.32 537.95 220.92 537.95 224.12C537.923 224.838 538.072 225.551 538.384 226.198C538.696 226.844 539.161 227.405 539.74 227.83C541.216 228.812 542.97 229.289 544.74 229.19C546.599 229.244 548.434 228.754 550.02 227.78V227.78Z" fill="#001DB7"/>
<path d="M580.91 230.16C580.176 230.802 579.313 231.28 578.38 231.56C577.366 231.89 576.306 232.055 575.24 232.05C574.182 232.168 573.111 232.047 572.106 231.697C571.101 231.346 570.187 230.775 569.432 230.024C568.677 229.274 568.1 228.364 567.743 227.361C567.386 226.359 567.258 225.289 567.37 224.23V207.97H562.56V204.9H567.37V199.03H571V204.9H579.17V207.97H571V224.02C570.907 225.35 571.337 226.663 572.2 227.68C572.657 228.115 573.2 228.451 573.794 228.667C574.387 228.882 575.019 228.971 575.65 228.93C576.388 228.932 577.121 228.81 577.82 228.57C578.481 228.356 579.096 228.016 579.63 227.57L580.91 230.16Z" fill="#001DB7"/>
<path d="M587.489 198.26C587.24 198.024 587.043 197.738 586.91 197.421C586.778 197.105 586.713 196.764 586.719 196.42C586.716 196.085 586.784 195.752 586.916 195.444C587.049 195.136 587.244 194.859 587.489 194.63C587.998 194.142 588.675 193.87 589.379 193.87C590.084 193.87 590.761 194.142 591.269 194.63C591.512 194.854 591.705 195.126 591.836 195.43C591.967 195.733 592.033 196.06 592.029 196.39C592.026 196.915 591.869 197.427 591.576 197.862C591.284 198.298 590.87 198.638 590.385 198.839C589.901 199.041 589.368 199.095 588.853 198.996C588.338 198.897 587.864 198.648 587.489 198.28V198.26ZM587.489 204.9H591.109V231.79H587.489V204.9Z" fill="#001DB7"/>
<path d="M605.27 230.28C603.218 229.135 601.523 227.447 600.37 225.4C599.195 223.234 598.58 220.809 598.58 218.345C598.58 215.881 599.195 213.456 600.37 211.29C601.524 209.252 603.22 207.574 605.27 206.44C607.427 205.302 609.83 204.707 612.27 204.707C614.709 204.707 617.112 205.302 619.27 206.44C621.318 207.568 623.009 209.249 624.15 211.29C625.307 213.462 625.912 215.884 625.912 218.345C625.912 220.806 625.307 223.229 624.15 225.4C623.01 227.45 621.32 229.14 619.27 230.28C617.119 231.44 614.713 232.047 612.27 232.047C609.826 232.047 607.421 231.44 605.27 230.28V230.28ZM617.41 227.52C618.926 226.653 620.161 225.369 620.97 223.82C621.806 222.118 622.24 220.247 622.24 218.35C622.24 216.454 621.806 214.582 620.97 212.88C620.162 211.329 618.926 210.041 617.41 209.17C615.833 208.317 614.068 207.87 612.275 207.87C610.482 207.87 608.717 208.317 607.14 209.17C605.62 210.043 604.378 211.33 603.56 212.88C602.705 214.577 602.26 216.45 602.26 218.35C602.26 220.25 602.705 222.123 603.56 223.82C604.379 225.367 605.62 226.65 607.14 227.52C608.715 228.38 610.48 228.83 612.275 228.83C614.069 228.83 615.835 228.38 617.41 227.52V227.52Z" fill="#001DB7"/>
<path d="M655.09 207.65C657.09 209.61 658.09 212.464 658.09 216.21V231.8H654.46V216.56C654.46 213.773 653.76 211.644 652.36 210.17C651.568 209.406 650.626 208.815 649.592 208.436C648.559 208.058 647.458 207.899 646.36 207.97C645.099 207.903 643.838 208.098 642.655 208.542C641.473 208.986 640.396 209.67 639.49 210.55C638.614 211.51 637.939 212.635 637.505 213.859C637.07 215.084 636.885 216.383 636.96 217.68V231.79H633.33V204.9H636.8V209.9C637.787 208.27 639.215 206.952 640.92 206.1C642.817 205.159 644.913 204.692 647.03 204.74C648.5 204.661 649.971 204.878 651.355 205.378C652.74 205.878 654.01 206.651 655.09 207.65V207.65Z" fill="#001DB7"/>
<path d="M624.29 112.5C618.596 123.254 609.467 131.794 598.357 136.758C587.248 141.723 574.796 142.826 562.986 139.893C551.176 136.96 540.688 130.158 533.192 120.573C525.696 110.987 521.623 99.1686 521.623 87.0001C521.623 74.8315 525.696 63.0129 533.192 53.4273C540.688 43.8416 551.176 37.0404 562.986 34.1071C574.796 31.1739 587.248 32.2773 598.357 37.2416C609.467 42.206 618.596 50.7456 624.29 61.5001L654.01 48.23C645.256 30.6518 630.812 16.5523 613.028 8.22445C595.244 -0.103416 575.165 -2.16973 556.058 2.36156C536.95 6.89286 519.938 17.7552 507.787 33.1821C495.636 48.6089 489.062 67.6928 489.133 87.3301C489.205 106.967 495.918 126.003 508.18 141.341C520.443 156.679 537.534 167.417 556.674 171.81C575.814 176.202 595.877 173.99 613.6 165.533C631.323 157.076 645.664 142.871 654.29 125.23L624.29 112.5Z" fill="#0D10D1"/>
<path d="M33 0H0V141V174H33H127V141H33V0Z" fill="#0D10D1"/>
<path d="M384 0H351V141V174H384H478V141H384V0Z" fill="#0D10D1"/>
<path d="M301.11 -6.10352e-05H301.03V0.0999451L239.03 81.9999L177.03 -6.10352e-05H144.03V174H177.32C177.32 143.027 177.337 112.063 177.37 81.1099L177.44 81.9399V80.9999L177.64 81.3199C189.64 100.32 224.98 156.19 292.64 173.94H292.71V143.94L263.64 123.94L301.03 80.7199V173.94H334.03V-0.0600586H301.11V-6.10352e-05Z" fill="#0D10D1"/>
</g>
<defs>
<clipPath id="clip0_1490_393">
<rect width="658.08" height="232.05" fill="white"/>
</clipPath>
</defs>
</svg>
